<?xml version="1.0" encoding="UTF-8"?>
<!DOCTYPE score-partwise PUBLIC "-//Recordare//DTD MusicXML 3.0 Partwise//EN" "http://www.musicxml.org/dtds/partwise.dtd">
<score-partwise version="3.0">
<work><work-title>The Master's Palette (Reimagined) - Orchestrated v11</work-title></work>
<identification><creator type="composer">Mike Bryant</creator>
<encoding><encoding-date>2025-12-10</encoding-date><encoder>V11 Artistic Expansion + Motivic Development</encoder>
<software>hybrid_guitar_chamber</software></encoding></identification>
<defaults><scaling><millimeters>6.5</millimeters><tenths>40</tenths></scaling></defaults>
<part-list>
<score-part id="P1"><part-name>Flute</part-name><part-abbreviation>Fl.</part-abbreviation></score-part>
<score-part id="P2"><part-name>Clarinet in Bb</part-name><part-abbreviation>Cl.</part-abbreviation></score-part>
<score-part id="P3"><part-name>Flugelhorn</part-name><part-abbreviation>Flhn.</part-abbreviation></score-part>
<score-part id="P4"><part-name>Violin</part-name><part-abbreviation>Vln.</part-abbreviation></score-part>
<score-part id="P5"><part-name>Viola</part-name><part-abbreviation>Vla.</part-abbreviation></score-part>
<score-part id="P6"><part-name>Cello</part-name><part-abbreviation>Vc.</part-abbreviation></score-part>
<score-part id="P7"><part-name>Double Bass</part-name><part-abbreviation>Cb.</part-abbreviation></score-part>
<score-part id="P8"><part-name>Guitar</part-name><part-abbreviation>Gtr.</part-abbreviation></score-part>
</part-list>

<!-- ============================================================ -->
<!-- PART 1: FLUTE -->
<!-- ============================================================ -->
<part id="P1">
<!-- ===== MOVEMENT I: MINGUS BLUES CATHEDRAL (mm. 1-20) ===== -->
<measure number="1"><attributes><divisions>256</divisions><key><fifths>-3</fifths><mode>minor</mode></key><time><beats>7</beats><beat-type>4</beat-type></time><clef><sign>G</sign><line>2</line></clef></attributes>
<direction><direction-type><words font-weight="bold" font-size="14">I. MINGUS BLUES CATHEDRAL</words></direction-type></direction>
<direction><direction-type><metronome><beat-unit>quarter</beat-unit><per-minute>92</per-minute></metronome></direction-type><sound tempo="92"/></direction>
<direction><direction-type><words font-style="italic">Pedal foundation - gospel darkness</words></direction-type></direction>
<note><rest/><duration>1792</duration><type>whole</type></note></measure>
<measure number="2"><note><rest/><duration>1792</duration><type>whole</type></note></measure>
<measure number="3"><note><rest/><duration>1792</duration><type>whole</type></note></measure>
<measure number="4"><note><rest/><duration>1792</duration><type>whole</type></note></measure>
<measure number="5"><note><rest/><duration>1792</duration><type>whole</type></note></measure>
<measure number="6"><note><rest/><duration>1792</duration><type>whole</type></note></measure>
<measure number="7"><direction><direction-type><dynamics><mp/></dynamics></direction-type></direction>
<direction><direction-type><words font-style="italic">Motif α echo - dovetail entry</words></direction-type></direction>
<note><pitch><step>D</step><octave>6</octave></pitch><duration>256</duration><type>quarter</type><notations><slur type="start" number="1"/></notations></note>
<note><rest/><duration>1536</duration><type>whole</type></note></measure>
<measure number="8"><note><rest/><duration>1792</duration><type>whole</type></note></measure>
<!-- NEW: Development bar 9 - motivic sequence -->
<measure number="9"><direction><direction-type><dynamics><p/></dynamics></direction-type></direction>
<note><pitch><step>C</step><octave>6</octave></pitch><duration>384</duration><type>quarter</type><dot/><notations><slur type="start" number="1"/></notations></note>
<note><pitch><step>E</step><alter>-1</alter><octave>6</octave></pitch><duration>256</duration><type>quarter</type></note>
<note><pitch><step>D</step><octave>6</octave></pitch><duration>384</duration><type>quarter</type><dot/><notations><slur type="stop" number="1"/></notations></note>
<note><rest/><duration>768</duration><type>half</type><dot/></note></measure>
<!-- NEW: Development bar 10 - intensification -->
<measure number="10"><direction><direction-type><dynamics><mf/></dynamics></direction-type></direction>
<note><rest/><duration>256</duration><type>quarter</type></note>
<note><pitch><step>F</step><octave>6</octave></pitch><duration>256</duration><type>quarter</type><notations><slur type="start" number="1"/></notations></note>
<note><pitch><step>A</step><alter>-1</alter><octave>6</octave></pitch><duration>256</duration><type>quarter</type></note>
<note><pitch><step>G</step><octave>6</octave></pitch><duration>512</duration><type>half</type><notations><slur type="stop" number="1"/></notations></note>
<note><rest/><duration>512</duration><type>half</type></note></measure>
<!-- NEW: Development bar 11 - α inverted -->
<measure number="11"><direction><direction-type><words font-style="italic">Motif α inverted</words></direction-type></direction>
<note><pitch><step>D</step><octave>6</octave></pitch><duration>384</duration><type>quarter</type><dot/><notations><slur type="start" number="1"/></notations></note>
<note><pitch><step>B</step><alter>-1</alter><octave>5</octave></pitch><duration>256</duration><type>quarter</type></note>
<note><pitch><step>C</step><octave>6</octave></pitch><duration>384</duration><type>quarter</type><dot/><notations><slur type="stop" number="1"/></notations></note>
<note><rest/><duration>768</duration><type>half</type><dot/></note></measure>
<!-- NEW: Harmonic plateau bar 12 -->
<measure number="12"><direction><direction-type><dynamics><mp/></dynamics></direction-type></direction>
<note><pitch><step>E</step><alter>-1</alter><octave>6</octave></pitch><duration>1024</duration><type>whole</type><notations><articulations><tenuto/></articulations></notations></note>
<note><rest/><duration>768</duration><type>half</type><dot/></note></measure>
<!-- NEW: Gospel response bar 13 -->
<measure number="13"><direction><direction-type><words font-style="italic">Gospel response</words></direction-type></direction>
<direction><direction-type><dynamics><mf/></dynamics></direction-type></direction>
<note><pitch><step>G</step><octave>6</octave></pitch><duration>256</duration><type>quarter</type><notations><slur type="start" number="1"/></notations></note>
<note><pitch><step>F</step><octave>6</octave></pitch><duration>256</duration><type>quarter</type></note>
<note><pitch><step>E</step><alter>-1</alter><octave>6</octave></pitch><duration>512</duration><type>half</type><notations><slur type="stop" number="1"/></notations></note>
<note><rest/><duration>768</duration><type>half</type><dot/></note></measure>
<!-- NEW: Climax intensification bar 14 -->
<measure number="14"><direction><direction-type><dynamics><f/></dynamics></direction-type></direction>
<note><pitch><step>A</step><alter>-1</alter><octave>6</octave></pitch><duration>512</duration><type>half</type><notations><slur type="start" number="1"/></notations></note>
<note><pitch><step>G</step><octave>6</octave></pitch><duration>512</duration><type>half</type></note>
<note><pitch><step>C</step><octave>7</octave></pitch><duration>768</duration><type>half</type><dot/><notations><slur type="stop" number="1"/></notations></note></measure>
<!-- Bar 15: climax continuation -->
<measure number="15"><note><pitch><step>B</step><alter>-1</alter><octave>6</octave></pitch><duration>768</duration><type>half</type><dot/><notations><articulations><tenuto/></articulations></notations></note>
<note><pitch><step>A</step><alter>-1</alter><octave>6</octave></pitch><duration>512</duration><type>half</type></note>
<note><pitch><step>G</step><octave>6</octave></pitch><duration>512</duration><type>half</type></note></measure>
<!-- NEW: Diminuendo bar 16 -->
<measure number="16"><direction><direction-type><dynamics><mp/></dynamics></direction-type></direction>
<direction><direction-type><words font-style="italic">diminuendo, receding</words></direction-type></direction>
<note><pitch><step>F</step><octave>6</octave></pitch><duration>512</duration><type>half</type><notations><slur type="start" number="1"/></notations></note>
<note><pitch><step>E</step><alter>-1</alter><octave>6</octave></pitch><duration>512</duration><type>half</type></note>
<note><pitch><step>D</step><octave>6</octave></pitch><duration>768</duration><type>half</type><dot/><notations><slur type="stop" number="1"/></notations></note></measure>
<!-- NEW: Breath bar 17 -->
<measure number="17"><direction><direction-type><dynamics><p/></dynamics></direction-type></direction>
<note><pitch><step>C</step><octave>6</octave></pitch><duration>1024</duration><type>whole</type><notations><articulations><tenuto/></articulations></notations></note>
<note><rest/><duration>768</duration><type>half</type><dot/></note></measure>
<!-- NEW: Echo bar 18 -->
<measure number="18"><direction><direction-type><dynamics><pp/></dynamics></direction-type></direction>
<note><rest/><duration>512</duration><type>half</type></note>
<note><pitch><step>E</step><alter>-1</alter><octave>6</octave></pitch><duration>256</duration><type>quarter</type><notations><slur type="start" number="1"/></notations></note>
<note><pitch><step>D</step><octave>6</octave></pitch><duration>512</duration><type>half</type><notations><slur type="stop" number="1"/></notations></note>
<note><rest/><duration>512</duration><type>half</type></note></measure>
<!-- Bar 19: α fragment -->
<measure number="19"><direction><direction-type><words font-style="italic">Motif α fragment - niente</words></direction-type></direction>
<direction><direction-type><dynamics><ppp/></dynamics></direction-type></direction>
<note><pitch><step>C</step><octave>6</octave></pitch><duration>768</duration><type>half</type><dot/></note>
<note><rest/><duration>1024</duration><type>whole</type></note></measure>
<!-- Bar 20: Transition breath -->
<measure number="20"><direction><direction-type><words font-style="italic">breath... prepare Gil</words></direction-type></direction>
<note><rest/><duration>1792</duration><type>whole</type></note></measure>

<!-- ===== MOVEMENT II: GIL'S ORCHESTRAL CANVAS (mm. 21-30) ===== -->
<measure number="21"><attributes><key><fifths>2</fifths><mode>major</mode></key><time><beats>9</beats><beat-type>8</beat-type></time></attributes>
<direction><direction-type><words font-weight="bold" font-size="14">II. GIL'S ORCHESTRAL CANVAS</words></direction-type></direction>
<direction><direction-type><metronome><beat-unit>dotted-quarter</beat-unit><per-minute>52</per-minute></metronome></direction-type><sound tempo="52"/></direction>
<direction><direction-type><words font-style="italic">Floating, suspended - pastel clouds</words></direction-type></direction>
<direction><direction-type><dynamics><p/></dynamics></direction-type></direction>
<note><pitch><step>A</step><octave>5</octave></pitch><duration>384</duration><type>quarter</type><dot/><notations><slur type="start" number="1"/></notations></note>
<note><pitch><step>B</step><octave>5</octave></pitch><duration>384</duration><type>quarter</type><dot/></note>
<note><pitch><step>A</step><octave>5</octave></pitch><duration>384</duration><type>quarter</type><dot/><notations><slur type="stop" number="1"/></notations></note></measure>
<measure number="22"><note><pitch><step>G</step><octave>5</octave></pitch><duration>768</duration><type>half</type><dot/><notations><slur type="start" number="1"/></notations></note>
<note><pitch><step>A</step><octave>5</octave></pitch><duration>384</duration><type>quarter</type><dot/><notations><slur type="stop" number="1"/></notations></note></measure>
<!-- NEW: Lydian plateau bar 23 -->
<measure number="23"><direction><direction-type><words font-style="italic">Lydian shimmer</words></direction-type></direction>
<note><pitch><step>F</step><alter>1</alter><octave>5</octave></pitch><duration>1152</duration><type>whole</type><dot/><notations><articulations><tenuto/></articulations></notations></note></measure>
<!-- NEW: Motif β introduction bar 24 -->
<measure number="24"><direction><direction-type><words font-style="italic">Motif β - fragile</words></direction-type></direction>
<direction><direction-type><dynamics><pp/></dynamics></direction-type></direction>
<note><pitch><step>F</step><alter>1</alter><octave>5</octave></pitch><duration>384</duration><type>quarter</type><dot/><notations><slur type="start" number="1"/></notations></note>
<note><pitch><step>G</step><octave>5</octave></pitch><duration>256</duration><type>quarter</type></note>
<note><pitch><step>A</step><octave>5</octave></pitch><duration>512</duration><type>half</type><notations><slur type="stop" number="1"/></notations></note></measure>
<!-- Fragility moment bar 25 -->
<measure number="25"><direction><direction-type><words font-style="italic">fragile, senza vibrato</words></direction-type></direction>
<direction><direction-type><dynamics><ppp/></dynamics></direction-type></direction>
<note><pitch><step>A</step><octave>5</octave></pitch><duration>768</duration><type>half</type><dot/><notations><slur type="start" number="1"/></notations></note>
<note><pitch><step>G</step><octave>5</octave></pitch><duration>256</duration><type>quarter</type></note>
<note><pitch><step>F</step><alter>1</alter><octave>5</octave></pitch><duration>128</duration><type>eighth</type><notations><slur type="stop" number="1"/></notations></note></measure>
<!-- NEW: Colour field bar 26 -->
<measure number="26"><direction><direction-type><dynamics><pp/></dynamics></direction-type></direction>
<note><pitch><step>E</step><octave>5</octave></pitch><duration>1152</duration><type>whole</type><dot/><notations><articulations><tenuto/></articulations></notations></note></measure>
<!-- NEW: β inversion bar 27 -->
<measure number="27"><direction><direction-type><words font-style="italic">β inverted</words></direction-type></direction>
<note><pitch><step>A</step><octave>5</octave></pitch><duration>384</duration><type>quarter</type><dot/><notations><slur type="start" number="1"/></notations></note>
<note><pitch><step>G</step><octave>5</octave></pitch><duration>256</duration><type>quarter</type></note>
<note><pitch><step>F</step><alter>1</alter><octave>5</octave></pitch><duration>512</duration><type>half</type><notations><slur type="stop" number="1"/></notations></note></measure>
<!-- NEW: Cluster cloud bar 28 -->
<measure number="28"><direction><direction-type><words font-style="italic">cluster cloud - bitonal</words></direction-type></direction>
<note><pitch><step>G</step><octave>5</octave></pitch><duration>768</duration><type>half</type><dot/></note>
<note><pitch><step>G</step><octave>5</octave></pitch><duration>256</duration><type>quarter</type></note>
<note><pitch><step>F</step><octave>5</octave></pitch><duration>128</duration><type>eighth</type><accidental>natural</accidental></note></measure>
<!-- NEW: Dissolving bar 29 -->
<measure number="29"><direction><direction-type><dynamics><ppp/></dynamics></direction-type></direction>
<direction><direction-type><words font-style="italic">dissolving...</words></direction-type></direction>
<note><pitch><step>E</step><octave>5</octave></pitch><duration>768</duration><type>half</type><dot/></note>
<note><rest/><duration>384</duration><type>quarter</type><dot/></note></measure>
<!-- Transition bar 30 -->
<measure number="30"><direction><direction-type><words font-style="italic">breath... prepare Bartók</words></direction-type></direction>
<note><rest/><duration>1152</duration><type>whole</type><dot/></note></measure>

<!-- ===== MOVEMENT III: BARTÓK NIGHT MUSIC (mm. 31-38) ===== -->
<measure number="31"><attributes><key><fifths>0</fifths><mode>minor</mode></key><time><beats>5</beats><beat-type>8</beat-type></time></attributes>
<direction><direction-type><words font-weight="bold" font-size="14">III. BARTÓK NIGHT MUSIC</words></direction-type></direction>
<direction><direction-type><metronome><beat-unit>quarter</beat-unit><per-minute>84</per-minute></metronome></direction-type><sound tempo="84"/></direction>
<direction><direction-type><words font-style="italic">flutter-tongue, eerie</words></direction-type></direction>
<direction><direction-type><dynamics><pp/></dynamics></direction-type></direction>
<note><pitch><step>A</step><octave>5</octave></pitch><duration>128</duration><type>eighth</type><notations><articulations><staccato/></articulations></notations></note>
<note><rest/><duration>256</duration><type>quarter</type></note>
<note><pitch><step>F</step><octave>5</octave></pitch><duration>128</duration><type>eighth</type><notations><articulations><staccato/></articulations></notations></note>
<note><rest/><duration>128</duration><type>eighth</type></note></measure>
<!-- NEW: Cluster intensification bar 32 -->
<measure number="32"><attributes><time><beats>7</beats><beat-type>8</beat-type></time></attributes>
<direction><direction-type><words font-style="italic">cluster stabs</words></direction-type></direction>
<note><rest/><duration>256</duration><type>quarter</type></note>
<note><pitch><step>B</step><alter>-1</alter><octave>5</octave></pitch><duration>128</duration><type>eighth</type><notations><articulations><accent/></articulations></notations></note>
<note><rest/><duration>256</duration><type>quarter</type></note>
<note><pitch><step>E</step><alter>-1</alter><octave>6</octave></pitch><duration>128</duration><type>eighth</type><notations><articulations><staccato/></articulations></notations></note>
<note><rest/><duration>128</duration><type>eighth</type></note></measure>
<!-- NEW: Wedge gesture bar 33 -->
<measure number="33"><attributes><time><beats>5</beats><beat-type>8</beat-type></time></attributes>
<direction><direction-type><words font-style="italic">Motif γ wedge</words></direction-type></direction>
<note><pitch><step>C</step><octave>6</octave></pitch><duration>128</duration><type>eighth</type><notations><slur type="start" number="1"/></notations></note>
<note><pitch><step>A</step><octave>5</octave></pitch><duration>128</duration><type>eighth</type></note>
<note><pitch><step>G</step><octave>5</octave></pitch><duration>256</duration><type>quarter</type><notations><slur type="stop" number="1"/></notations></note>
<note><rest/><duration>128</duration><type>eighth</type></note></measure>
<!-- Stillness bar 34 -->
<measure number="34"><attributes><time><beats>7</beats><beat-type>8</beat-type></time></attributes>
<direction><direction-type><words font-style="italic">stillness - ppp fermata</words></direction-type></direction>
<direction><direction-type><dynamics><ppp/></dynamics></direction-type></direction>
<note><pitch><step>F</step><octave>5</octave></pitch><duration>640</duration><type>half</type><dot/><dot/><notations><fermata type="upright"/></notations></note>
<note><rest/><duration>256</duration><type>quarter</type></note></measure>
<!-- NEW: Night bird call bar 35 -->
<measure number="35"><attributes><time><beats>5</beats><beat-type>8</beat-type></time></attributes>
<direction><direction-type><words font-style="italic">night bird - flutter</words></direction-type></direction>
<direction><direction-type><dynamics><pp/></dynamics></direction-type></direction>
<note><rest/><duration>256</duration><type>quarter</type></note>
<note><pitch><step>A</step><octave>6</octave></pitch><duration>128</duration><type>eighth</type><notations><articulations><staccato/></articulations></notations></note>
<note><pitch><step>F</step><octave>6</octave></pitch><duration>128</duration><type>eighth</type><notations><articulations><staccato/></articulations></notations></note>
<note><rest/><duration>128</duration><type>eighth</type></note></measure>
<!-- NEW: Cluster pedal bar 36 -->
<measure number="36"><attributes><time><beats>7</beats><beat-type>8</beat-type></time></attributes>
<note><pitch><step>F</step><octave>5</octave></pitch><duration>384</duration><type>quarter</type><dot/></note>
<note><pitch><step>F</step><octave>5</octave></pitch><duration>256</duration><type>quarter</type></note>
<note><rest/><duration>256</duration><type>quarter</type></note></measure>
<!-- NEW: Transition gesture bar 37 -->
<measure number="37"><attributes><time><beats>5</beats><beat-type>8</beat-type></time></attributes>
<direction><direction-type><words font-style="italic">γ fragment - registral shift</words></direction-type></direction>
<note><pitch><step>G</step><octave>5</octave></pitch><duration>128</duration><type>eighth</type><notations><slur type="start" number="1"/></notations></note>
<note><pitch><step>E</step><octave>5</octave></pitch><duration>128</duration><type>eighth</type></note>
<note><pitch><step>D</step><octave>5</octave></pitch><duration>256</duration><type>quarter</type><notations><slur type="stop" number="1"/></notations></note>
<note><rest/><duration>128</duration><type>eighth</type></note></measure>
<!-- Breath bar 38 -->
<measure number="38"><attributes><time><beats>7</beats><beat-type>8</beat-type></time></attributes>
<direction><direction-type><words font-style="italic">niente... breath</words></direction-type></direction>
<note><rest/><duration>896</duration><type>whole</type></note></measure>

<!-- ===== MOVEMENT IV: KLANGFARBENMELODIE II (mm. 39-50) ===== -->
<measure number="39"><attributes><key><fifths>0</fifths><mode>major</mode></key><time><beats>11</beats><beat-type>8</beat-type></time></attributes>
<direction><direction-type><words font-weight="bold" font-size="14">IV. KLANGFARBENMELODIE II</words></direction-type></direction>
<direction><direction-type><metronome><beat-unit>quarter</beat-unit><per-minute>72</per-minute></metronome></direction-type><sound tempo="72"/></direction>
<direction><direction-type><words font-style="italic">Timbre chain - Schoenberg/Webern</words></direction-type></direction>
<direction><direction-type><dynamics><mf/></dynamics></direction-type></direction>
<note><rest/><duration>640</duration><type>half</type><dot/></note>
<note><pitch><step>A</step><octave>5</octave></pitch><duration>256</duration><type>quarter</type><notations><slur type="start" number="1"/></notations></note>
<note><pitch><step>G</step><octave>5</octave></pitch><duration>128</duration><type>eighth</type></note>
<note><pitch><step>E</step><octave>5</octave></pitch><duration>128</duration><type>eighth</type><notations><slur type="stop" number="1"/></notations></note>
<note><rest/><duration>256</duration><type>quarter</type></note></measure>
<!-- Timbre handoff bar 40 -->
<measure number="40"><direction><direction-type><words font-style="italic">dovetail - echo</words></direction-type></direction>
<note><rest/><duration>512</duration><type>half</type></note>
<note><pitch><step>B</step><octave>5</octave></pitch><duration>640</duration><type>half</type><dot/></note>
<note><pitch><step>B</step><octave>5</octave></pitch><duration>256</duration><type>quarter</type></note></measure>
<!-- NEW: Development chain bar 41 -->
<measure number="41"><direction><direction-type><words font-style="italic">development chain</words></direction-type></direction>
<note><pitch><step>C</step><octave>6</octave></pitch><duration>384</duration><type>quarter</type><dot/><notations><slur type="start" number="1"/></notations></note>
<note><pitch><step>B</step><octave>5</octave></pitch><duration>256</duration><type>quarter</type></note>
<note><pitch><step>A</step><octave>5</octave></pitch><duration>256</duration><type>quarter</type><notations><slur type="stop" number="1"/></notations></note>
<note><rest/><duration>512</duration><type>half</type></note></measure>
<!-- NEW: γ augmented bar 42 -->
<measure number="42"><direction><direction-type><words font-style="italic">Motif γ augmented</words></direction-type></direction>
<note><pitch><step>C</step><octave>6</octave></pitch><duration>512</duration><type>half</type><notations><slur type="start" number="1"/></notations></note>
<note><pitch><step>A</step><octave>5</octave></pitch><duration>384</duration><type>quarter</type><dot/></note>
<note><pitch><step>G</step><octave>5</octave></pitch><duration>512</duration><type>half</type><notations><slur type="stop" number="1"/></notations></note></measure>
<!-- NEW: Chromatic evolution bar 43 -->
<measure number="43"><direction><direction-type><words font-style="italic">chromatic evolution</words></direction-type></direction>
<note><pitch><step>G</step><alter>1</alter><octave>5</octave></pitch><duration>384</duration><type>quarter</type><dot/><accidental>sharp</accidental><notations><slur type="start" number="1"/></notations></note>
<note><pitch><step>A</step><octave>5</octave></pitch><duration>256</duration><type>quarter</type></note>
<note><pitch><step>B</step><alter>-1</alter><octave>5</octave></pitch><duration>384</duration><type>quarter</type><dot/><accidental>flat</accidental></note>
<note><pitch><step>B</step><octave>5</octave></pitch><duration>256</duration><type>quarter</type><accidental>natural</accidental><notations><slur type="stop" number="1"/></notations></note>
<note><rest/><duration>128</duration><type>eighth</type></note></measure>
<!-- NEW: Timbral shift bar 44 -->
<measure number="44"><direction><direction-type><dynamics><mp/></dynamics></direction-type></direction>
<note><rest/><duration>384</duration><type>quarter</type><dot/></note>
<note><pitch><step>C</step><octave>6</octave></pitch><duration>256</duration><type>quarter</type></note>
<note><rest/><duration>768</duration><type>half</type><dot/></note></measure>
<!-- NEW: Sequence bar 45 -->
<measure number="45"><direction><direction-type><words font-style="italic">motivic sequence</words></direction-type></direction>
<note><pitch><step>D</step><octave>6</octave></pitch><duration>384</duration><type>quarter</type><dot/><notations><slur type="start" number="1"/></notations></note>
<note><pitch><step>C</step><octave>6</octave></pitch><duration>256</duration><type>quarter</type></note>
<note><pitch><step>B</step><octave>5</octave></pitch><duration>256</duration><type>quarter</type><notations><slur type="stop" number="1"/></notations></note>
<note><rest/><duration>512</duration><type>half</type></note></measure>
<!-- NEW: Lydian pivot bar 46 -->
<measure number="46"><direction><direction-type><words font-style="italic">Lydian pivot</words></direction-type></direction>
<note><pitch><step>F</step><alter>1</alter><octave>5</octave></pitch><duration>640</duration><type>half</type><dot/><notations><slur type="start" number="1"/></notations></note>
<note><pitch><step>G</step><octave>5</octave></pitch><duration>384</duration><type>quarter</type><dot/></note>
<note><pitch><step>A</step><octave>5</octave></pitch><duration>384</duration><type>quarter</type><dot/><notations><slur type="stop" number="1"/></notations></note></measure>
<!-- NEW: Rhythmic augmentation bar 47 -->
<measure number="47"><direction><direction-type><dynamics><mf/></dynamics></direction-type></direction>
<note><pitch><step>B</step><octave>5</octave></pitch><duration>768</duration><type>half</type><dot/><notations><articulations><tenuto/></articulations></notations></note>
<note><rest/><duration>640</duration><type>half</type><dot/></note></measure>
<!-- NEW: Coalescence bar 48 -->
<measure number="48"><direction><direction-type><words font-style="italic">coalescence - all voices uniting</words></direction-type></direction>
<direction><direction-type><dynamics><f/></dynamics></direction-type></direction>
<note><pitch><step>E</step><octave>6</octave></pitch><duration>512</duration><type>half</type><notations><slur type="start" number="1"/></notations></note>
<note><pitch><step>D</step><octave>6</octave></pitch><duration>384</duration><type>quarter</type><dot/></note>
<note><pitch><step>C</step><octave>6</octave></pitch><duration>512</duration><type>half</type><notations><slur type="stop" number="1"/></notations></note></measure>
<!-- Metric modulation bar 49 -->
<measure number="49"><attributes><time><beats>4</beats><beat-type>4</beat-type></time></attributes>
<direction><direction-type><metronome><beat-unit>quarter</beat-unit><per-minute>92</per-minute></metronome></direction-type><sound tempo="92"/></direction>
<direction><direction-type><words font-style="italic">metric modulation</words></direction-type></direction>
<note><pitch><step>E</step><octave>5</octave></pitch><duration>512</duration><type>half</type><notations><slur type="start" number="1"/></notations></note>
<note><pitch><step>C</step><octave>6</octave></pitch><duration>256</duration><type>quarter</type></note>
<note><pitch><step>B</step><octave>5</octave></pitch><duration>256</duration><type>quarter</type><notations><slur type="stop" number="1"/></notations></note></measure>
<!-- Breath before chorale bar 50 -->
<measure number="50"><direction><direction-type><words font-style="italic">breath... prepare Chorale</words></direction-type></direction>
<direction><direction-type><dynamics><mp/></dynamics></direction-type></direction>
<note><pitch><step>A</step><octave>5</octave></pitch><duration>768</duration><type>half</type><dot/></note>
<note><rest/><duration>256</duration><type>quarter</type></note></measure>

<!-- ===== CHORALE / FINALE (mm. 51-55) ===== -->
<measure number="51"><direction><direction-type><words font-weight="bold" font-size="14">V. CHORALE / FINALE</words></direction-type></direction>
<direction><direction-type><words font-style="italic">CHORALE - triumphant</words></direction-type></direction>
<direction><direction-type><dynamics><ff/></dynamics></direction-type></direction>
<note><pitch><step>G</step><octave>6</octave></pitch><duration>768</duration><type>half</type><dot/><notations><slur type="start" number="1"/></notations></note>
<note><pitch><step>G</step><octave>6</octave></pitch><duration>256</duration><type>quarter</type><notations><slur type="stop" number="1"/></notations></note></measure>
<!-- Harmonic warmth bar 52 -->
<measure number="52"><note><pitch><step>A</step><octave>6</octave></pitch><duration>512</duration><type>half</type><notations><slur type="start" number="1"/></notations></note>
<note><pitch><step>G</step><octave>6</octave></pitch><duration>512</duration><type>half</type><notations><slur type="stop" number="1"/></notations></note></measure>
<!-- Dynamic swell bar 53 -->
<measure number="53"><direction><direction-type><dynamics><fff/></dynamics></direction-type></direction>
<note><pitch><step>C</step><octave>7</octave></pitch><duration>1024</duration><type>whole</type><notations><articulations><tenuto/></articulations></notations></note></measure>
<!-- Diminuendo bar 54 -->
<measure number="54"><direction><direction-type><dynamics><mf/></dynamics></direction-type></direction>
<direction><direction-type><words font-style="italic">diminuendo, molto espressivo</words></direction-type></direction>
<note><pitch><step>G</step><octave>6</octave></pitch><duration>512</duration><type>half</type><notations><slur type="start" number="1"/></notations></note>
<note><pitch><step>E</step><octave>6</octave></pitch><duration>512</duration><type>half</type><notations><slur type="stop" number="1"/></notations></note></measure>
<!-- Final bar 55 -->
<measure number="55"><direction><direction-type><dynamics><p/></dynamics></direction-type></direction>
<direction><direction-type><words font-style="italic">delicato, niente</words></direction-type></direction>
<note><pitch><step>C</step><octave>7</octave></pitch><duration>1024</duration><type>whole</type><notations><fermata type="upright"/></notations></note>
<barline><bar-style>light-heavy</bar-style></barline></measure>
</part>

<!-- ============================================================ -->
<!-- PART 2: CLARINET IN Bb -->
<!-- ============================================================ -->
<part id="P2">
<measure number="1"><attributes><divisions>256</divisions><key><fifths>-1</fifths><mode>minor</mode></key><time><beats>7</beats><beat-type>4</beat-type></time><clef><sign>G</sign><line>2</line></clef><transpose><diatonic>-1</diatonic><chromatic>-2</chromatic></transpose></attributes>
<note><rest/><duration>1792</duration><type>whole</type></note></measure>
<measure number="2"><note><rest/><duration>1792</duration><type>whole</type></note></measure>
<measure number="3"><note><rest/><duration>1792</duration><type>whole</type></note></measure>
<measure number="4"><note><rest/><duration>1792</duration><type>whole</type></note></measure>
<measure number="5"><direction><direction-type><dynamics><mp/></dynamics></direction-type></direction>
<direction><direction-type><words font-style="italic">shadow line - 3rds below</words></direction-type></direction>
<note><pitch><step>E</step><octave>5</octave></pitch><duration>384</duration><type>quarter</type><dot/><notations><slur type="start" number="1"/></notations></note>
<note><pitch><step>E</step><octave>5</octave></pitch><duration>128</duration><type>eighth</type></note>
<note><pitch><step>D</step><octave>5</octave></pitch><duration>128</duration><type>eighth</type></note>
<note><pitch><step>C</step><octave>5</octave></pitch><duration>256</duration><type>quarter</type><notations><slur type="stop" number="1"/></notations></note>
<note><rest/><duration>896</duration><type>half</type><dot/></note></measure>
<measure number="6"><note><rest/><duration>128</duration><type>eighth</type></note>
<note><pitch><step>D</step><octave>5</octave></pitch><duration>384</duration><type>quarter</type><dot/><notations><slur type="start" number="1"/></notations></note>
<note><pitch><step>F</step><octave>5</octave></pitch><duration>256</duration><type>quarter</type><notations><slur type="stop" number="1"/></notations></note>
<note><rest/><duration>1024</duration><type>whole</type></note></measure>
<measure number="7"><note><rest/><duration>1792</duration><type>whole</type></note></measure>
<measure number="8"><note><rest/><duration>1792</duration><type>whole</type></note></measure>
<measure number="9"><direction><direction-type><words font-style="italic">α echo - dovetail</words></direction-type></direction>
<note><rest/><duration>512</duration><type>half</type></note>
<note><pitch><step>D</step><octave>5</octave></pitch><duration>384</duration><type>quarter</type><dot/><notations><slur type="start" number="1"/></notations></note>
<note><pitch><step>F</step><octave>5</octave></pitch><duration>256</duration><type>quarter</type></note>
<note><pitch><step>E</step><octave>5</octave></pitch><duration>384</duration><type>quarter</type><dot/><notations><slur type="stop" number="1"/></notations></note>
<note><rest/><duration>256</duration><type>quarter</type></note></measure>
<measure number="10"><direction><direction-type><dynamics><mf/></dynamics></direction-type></direction>
<note><pitch><step>E</step><octave>5</octave></pitch><duration>256</duration><type>quarter</type><notations><slur type="start" number="1"/></notations></note>
<note><pitch><step>G</step><octave>5</octave></pitch><duration>256</duration><type>quarter</type></note>
<note><pitch><step>B</step><octave>5</octave></pitch><duration>256</duration><type>quarter</type></note>
<note><pitch><step>C</step><octave>6</octave></pitch><duration>256</duration><type>quarter</type><notations><slur type="stop" number="1"/></notations></note>
<note><pitch><step>D</step><octave>6</octave></pitch><duration>768</duration><type>half</type><dot/></note></measure>
<measure number="11"><note><pitch><step>C</step><octave>6</octave></pitch><duration>512</duration><type>half</type><notations><slur type="start" number="1"/></notations></note>
<note><pitch><step>B</step><octave>5</octave></pitch><duration>512</duration><type>half</type></note>
<note><pitch><step>A</step><octave>5</octave></pitch><duration>768</duration><type>half</type><dot/><notations><slur type="stop" number="1"/></notations></note></measure>
<measure number="12"><note><pitch><step>G</step><octave>5</octave></pitch><duration>512</duration><type>half</type><notations><articulations><tenuto/></articulations></notations></note>
<note><rest/><duration>1280</duration><type>whole</type></note></measure>
<measure number="13"><note><rest/><duration>512</duration><type>half</type></note>
<note><pitch><step>D</step><octave>5</octave></pitch><duration>384</duration><type>quarter</type><dot/><notations><slur type="start" number="1"/></notations></note>
<note><pitch><step>E</step><octave>5</octave></pitch><duration>384</duration><type>quarter</type><dot/></note>
<note><pitch><step>F</step><octave>5</octave></pitch><duration>512</duration><type>half</type><notations><slur type="stop" number="1"/></notations></note></measure>
<measure number="14"><note><pitch><step>G</step><octave>5</octave></pitch><duration>768</duration><type>half</type><dot/></note>
<note><pitch><step>F</step><octave>5</octave></pitch><duration>512</duration><type>half</type></note>
<note><pitch><step>E</step><octave>5</octave></pitch><duration>512</duration><type>half</type></note></measure>
<measure number="15"><direction><direction-type><dynamics><mp/></dynamics></direction-type></direction>
<note><pitch><step>D</step><octave>5</octave></pitch><duration>768</duration><type>half</type><dot/></note>
<note><rest/><duration>1024</duration><type>whole</type></note></measure>
<measure number="16"><note><rest/><duration>768</duration><type>half</type><dot/></note>
<note><pitch><step>C</step><octave>5</octave></pitch><duration>512</duration><type>half</type><notations><slur type="start" number="1"/></notations></note>
<note><pitch><step>D</step><octave>5</octave></pitch><duration>512</duration><type>half</type><notations><slur type="stop" number="1"/></notations></note></measure>
<measure number="17"><direction><direction-type><dynamics><p/></dynamics></direction-type></direction>
<note><pitch><step>E</step><octave>5</octave></pitch><duration>1024</duration><type>whole</type></note>
<note><rest/><duration>768</duration><type>half</type><dot/></note></measure>
<measure number="18"><direction><direction-type><dynamics><pp/></dynamics></direction-type></direction>
<note><rest/><duration>1024</duration><type>whole</type></note>
<note><pitch><step>D</step><octave>5</octave></pitch><duration>384</duration><type>quarter</type><dot/><notations><slur type="start" number="1"/></notations></note>
<note><pitch><step>C</step><octave>5</octave></pitch><duration>384</duration><type>quarter</type><dot/><notations><slur type="stop" number="1"/></notations></note></measure>
<measure number="19"><note><rest/><duration>1792</duration><type>whole</type></note></measure>
<measure number="20"><note><rest/><duration>1792</duration><type>whole</type></note></measure>
<measure number="21"><attributes><key><fifths>4</fifths><mode>major</mode></key><time><beats>9</beats><beat-type>8</beat-type></time></attributes>
<note><rest/><duration>1152</duration><type>whole</type><dot/></note></measure>
<measure number="22"><note><rest/><duration>1152</duration><type>whole</type><dot/></note></measure>
<measure number="23"><note><rest/><duration>1152</duration><type>whole</type><dot/></note></measure>
<measure number="24"><direction><direction-type><dynamics><pp/></dynamics></direction-type></direction>
<note><rest/><duration>384</duration><type>quarter</type><dot/></note>
<note><pitch><step>D</step><octave>5</octave></pitch><duration>384</duration><type>quarter</type><dot/><notations><slur type="start" number="1"/></notations></note>
<note><pitch><step>E</step><octave>5</octave></pitch><duration>384</duration><type>quarter</type><dot/><notations><slur type="stop" number="1"/></notations></note></measure>
<measure number="25"><note><rest/><duration>1152</duration><type>whole</type><dot/></note></measure>
<measure number="26"><note><rest/><duration>1152</duration><type>whole</type><dot/></note></measure>
<measure number="27"><note><rest/><duration>1152</duration><type>whole</type><dot/></note></measure>
<measure number="28"><note><rest/><duration>1152</duration><type>whole</type><dot/></note></measure>
<measure number="29"><note><rest/><duration>1152</duration><type>whole</type><dot/></note></measure>
<measure number="30"><note><rest/><duration>1152</duration><type>whole</type><dot/></note></measure>
<measure number="31"><attributes><key><fifths>2</fifths><mode>minor</mode></key><time><beats>5</beats><beat-type>8</beat-type></time></attributes>
<note><rest/><duration>256</duration><type>quarter</type></note>
<note><pitch><step>C</step><octave>6</octave></pitch><duration>256</duration><type>quarter</type><notations><articulations><tenuto/></articulations></notations></note>
<note><rest/><duration>128</duration><type>eighth</type></note></measure>
<measure number="32"><attributes><time><beats>7</beats><beat-type>8</beat-type></time></attributes>
<note><rest/><duration>256</duration><type>quarter</type></note>
<note><pitch><step>D</step><octave>6</octave></pitch><duration>128</duration><type>eighth</type><notations><articulations><staccato/></articulations></notations></note>
<note><pitch><step>C</step><octave>6</octave></pitch><duration>128</duration><type>eighth</type><notations><articulations><tenuto/></articulations></notations></note>
<note><rest/><duration>384</duration><type>quarter</type><dot/></note></measure>
<measure number="33"><attributes><time><beats>5</beats><beat-type>8</beat-type></time></attributes>
<note><rest/><duration>640</duration><type>whole</type></note></measure>
<measure number="34"><attributes><time><beats>7</beats><beat-type>8</beat-type></time></attributes>
<note><rest/><duration>896</duration><type>whole</type></note></measure>
<measure number="35"><attributes><time><beats>5</beats><beat-type>8</beat-type></time></attributes>
<note><rest/><duration>640</duration><type>whole</type></note></measure>
<measure number="36"><attributes><time><beats>7</beats><beat-type>8</beat-type></time></attributes>
<note><pitch><step>B</step><octave>5</octave></pitch><duration>256</duration><type>quarter</type></note>
<note><rest/><duration>640</duration><type>half</type><dot/></note></measure>
<measure number="37"><attributes><time><beats>5</beats><beat-type>8</beat-type></time></attributes>
<note><rest/><duration>640</duration><type>whole</type></note></measure>
<measure number="38"><attributes><time><beats>7</beats><beat-type>8</beat-type></time></attributes>
<note><rest/><duration>896</duration><type>whole</type></note></measure>
<measure number="39"><attributes><key><fifths>2</fifths><mode>major</mode></key><time><beats>11</beats><beat-type>8</beat-type></time></attributes>
<note><rest/><duration>384</duration><type>quarter</type><dot/></note>
<note><pitch><step>G</step><octave>5</octave></pitch><duration>128</duration><type>eighth</type></note>
<note><rest/><duration>896</duration><type>half</type><dot/></note></measure>
<measure number="40"><note><rest/><duration>1408</duration><type>whole</type></note></measure>
<measure number="41"><note><rest/><duration>640</duration><type>half</type><dot/></note>
<note><pitch><step>G</step><octave>5</octave></pitch><duration>384</duration><type>quarter</type><dot/><notations><slur type="start" number="1"/></notations></note>
<note><pitch><step>F</step><alter>1</alter><octave>5</octave></pitch><duration>384</duration><type>quarter</type><dot/><notations><slur type="stop" number="1"/></notations></note></measure>
<measure number="42"><note><rest/><duration>1408</duration><type>whole</type></note></measure>
<measure number="43"><note><rest/><duration>1408</duration><type>whole</type></note></measure>
<measure number="44"><note><rest/><duration>1408</duration><type>whole</type></note></measure>
<measure number="45"><note><rest/><duration>1408</duration><type>whole</type></note></measure>
<measure number="46"><note><rest/><duration>1408</duration><type>whole</type></note></measure>
<measure number="47"><note><rest/><duration>1408</duration><type>whole</type></note></measure>
<measure number="48"><direction><direction-type><dynamics><f/></dynamics></direction-type></direction>
<note><pitch><step>D</step><octave>5</octave></pitch><duration>512</duration><type>half</type><notations><slur type="start" number="1"/></notations></note>
<note><pitch><step>E</step><octave>5</octave></pitch><duration>384</duration><type>quarter</type><dot/></note>
<note><pitch><step>F</step><alter>1</alter><octave>5</octave></pitch><duration>512</duration><type>half</type><notations><slur type="stop" number="1"/></notations></note></measure>
<measure number="49"><attributes><time><beats>4</beats><beat-type>4</beat-type></time></attributes>
<note><pitch><step>D</step><octave>5</octave></pitch><duration>512</duration><type>half</type></note>
<note><pitch><step>F</step><octave>5</octave></pitch><duration>256</duration><type>quarter</type></note>
<note><pitch><step>E</step><octave>5</octave></pitch><duration>256</duration><type>quarter</type></note></measure>
<measure number="50"><note><pitch><step>D</step><octave>5</octave></pitch><duration>768</duration><type>half</type><dot/></note>
<note><rest/><duration>256</duration><type>quarter</type></note></measure>
<measure number="51"><direction><direction-type><dynamics><ff/></dynamics></direction-type></direction>
<note><pitch><step>D</step><octave>5</octave></pitch><duration>768</duration><type>half</type><dot/></note>
<note><pitch><step>D</step><octave>5</octave></pitch><duration>256</duration><type>quarter</type></note></measure>
<measure number="52"><note><pitch><step>F</step><octave>5</octave></pitch><duration>512</duration><type>half</type></note>
<note><pitch><step>E</step><octave>5</octave></pitch><duration>512</duration><type>half</type></note></measure>
<measure number="53"><direction><direction-type><dynamics><fff/></dynamics></direction-type></direction>
<note><pitch><step>G</step><octave>5</octave></pitch><duration>1024</duration><type>whole</type></note></measure>
<measure number="54"><direction><direction-type><dynamics><mf/></dynamics></direction-type></direction>
<note><pitch><step>E</step><octave>5</octave></pitch><duration>512</duration><type>half</type></note>
<note><pitch><step>D</step><octave>5</octave></pitch><duration>512</duration><type>half</type></note></measure>
<measure number="55"><note><pitch><step>E</step><octave>5</octave></pitch><duration>1024</duration><type>whole</type><notations><fermata type="upright"/></notations></note>
<barline><bar-style>light-heavy</bar-style></barline></measure>
</part>

<!-- ============================================================ -->
<!-- PART 3: FLUGELHORN -->
<!-- ============================================================ -->
<part id="P3">
<measure number="1"><attributes><divisions>256</divisions><key><fifths>-1</fifths><mode>minor</mode></key><time><beats>7</beats><beat-type>4</beat-type></time><clef><sign>G</sign><line>2</line></clef><transpose><diatonic>-1</diatonic><chromatic>-2</chromatic></transpose></attributes>
<note><rest/><duration>1792</duration><type>whole</type></note></measure>
<measure number="2"><note><rest/><duration>1792</duration><type>whole</type></note></measure>
<measure number="3"><note><rest/><duration>1792</duration><type>whole</type></note></measure>
<measure number="4"><direction><direction-type><words font-style="italic">Flugelhorn enters - espressivo, Motif α</words></direction-type></direction>
<direction><direction-type><dynamics><mf/></dynamics></direction-type></direction>
<note><rest/><duration>768</duration><type>half</type><dot/></note>
<note><pitch><step>D</step><octave>5</octave></pitch><duration>256</duration><type>quarter</type><notations><slur type="start" number="1"/></notations></note>
<note><pitch><step>F</step><octave>5</octave></pitch><duration>256</duration><type>quarter</type></note>
<note><pitch><step>G</step><octave>5</octave></pitch><duration>256</duration><type>quarter</type></note>
<note><pitch><step>A</step><octave>5</octave></pitch><duration>256</duration><type>quarter</type><notations><slur type="stop" number="1"/></notations></note></measure>
<measure number="5"><note><pitch><step>A</step><octave>5</octave></pitch><duration>256</duration><type>quarter</type><notations><slur type="start" number="1"/></notations></note>
<note><pitch><step>A</step><octave>5</octave></pitch><duration>128</duration><type>eighth</type></note>
<note><pitch><step>G</step><octave>5</octave></pitch><duration>128</duration><type>eighth</type></note>
<note><pitch><step>F</step><octave>5</octave></pitch><duration>256</duration><type>quarter</type></note>
<note><pitch><step>D</step><octave>5</octave></pitch><duration>256</duration><type>quarter</type></note>
<note><pitch><step>C</step><octave>5</octave></pitch><duration>256</duration><type>quarter</type></note>
<note><pitch><step>D</step><octave>5</octave></pitch><duration>512</duration><type>half</type><notations><slur type="stop" number="1"/></notations></note></measure>
<measure number="6"><note><pitch><step>F</step><octave>5</octave></pitch><duration>128</duration><type>eighth</type><notations><slur type="start" number="1"/></notations></note>
<note><pitch><step>G</step><octave>5</octave></pitch><duration>384</duration><type>quarter</type><dot/></note>
<note><pitch><step>B</step><octave>5</octave></pitch><duration>256</duration><type>quarter</type></note>
<note><pitch><step>A</step><octave>5</octave></pitch><duration>256</duration><type>quarter</type></note>
<note><pitch><step>G</step><octave>5</octave></pitch><duration>256</duration><type>quarter</type><notations><slur type="stop" number="1"/></notations></note>
<note><rest/><duration>256</duration><type>quarter</type></note>
<note><pitch><step>F</step><octave>5</octave></pitch><duration>256</duration><type>quarter</type></note></measure>
<measure number="7"><note><pitch><step>E</step><octave>5</octave></pitch><duration>256</duration><type>quarter</type><notations><slur type="start" number="1"/></notations></note>
<note><pitch><step>D</step><octave>5</octave></pitch><duration>128</duration><type>eighth</type></note>
<note><pitch><step>C</step><octave>5</octave></pitch><duration>384</duration><type>quarter</type><dot/></note>
<note><pitch><step>D</step><octave>5</octave></pitch><duration>512</duration><type>half</type><notations><slur type="stop" number="1"/></notations></note>
<note><pitch><step>D</step><octave>5</octave></pitch><duration>512</duration><type>half</type></note></measure>
<measure number="8"><note><rest/><duration>128</duration><type>eighth</type></note>
<note><pitch><step>D</step><octave>5</octave></pitch><duration>128</duration><type>eighth</type><notations><slur type="start" number="1"/></notations></note>
<note><pitch><step>F</step><octave>5</octave></pitch><duration>256</duration><type>quarter</type></note>
<note><pitch><step>G</step><octave>5</octave></pitch><duration>256</duration><type>quarter</type></note>
<note><pitch><step>A</step><octave>5</octave></pitch><duration>384</duration><type>quarter</type><dot/></note>
<note><pitch><step>A</step><octave>5</octave></pitch><duration>128</duration><type>eighth</type></note>
<note><pitch><step>B</step><octave>5</octave></pitch><duration>256</duration><type>quarter</type></note>
<note><pitch><step>A</step><octave>5</octave></pitch><duration>256</duration><type>quarter</type><notations><slur type="stop" number="1"/></notations></note></measure>
<measure number="9"><direction><direction-type><dynamics><mp/></dynamics></direction-type></direction>
<note><pitch><step>G</step><octave>5</octave></pitch><duration>512</duration><type>half</type><notations><slur type="start" number="1"/></notations></note>
<note><pitch><step>F</step><octave>5</octave></pitch><duration>256</duration><type>quarter</type></note>
<note><pitch><step>D</step><octave>5</octave></pitch><duration>256</duration><type>quarter</type><notations><slur type="stop" number="1"/></notations></note>
<note><rest/><duration>768</duration><type>half</type><dot/></note></measure>
<measure number="10"><note><rest/><duration>1792</duration><type>whole</type></note></measure>
<measure number="11"><direction><direction-type><dynamics><mf/></dynamics></direction-type></direction>
<note><pitch><step>F</step><octave>5</octave></pitch><duration>256</duration><type>quarter</type><notations><slur type="start" number="1"/></notations></note>
<note><pitch><step>E</step><octave>5</octave></pitch><duration>256</duration><type>quarter</type></note>
<note><pitch><step>D</step><octave>5</octave></pitch><duration>256</duration><type>quarter</type><notations><slur type="stop" number="1"/></notations></note>
<note><rest/><duration>1024</duration><type>whole</type></note></measure>
<measure number="12"><note><rest/><duration>1792</duration><type>whole</type></note></measure>
<measure number="13"><note><rest/><duration>512</duration><type>half</type></note>
<note><pitch><step>D</step><octave>5</octave></pitch><duration>384</duration><type>quarter</type><dot/><notations><slur type="start" number="1"/></notations></note>
<note><pitch><step>F</step><octave>5</octave></pitch><duration>384</duration><type>quarter</type><dot/></note>
<note><pitch><step>G</step><octave>5</octave></pitch><duration>512</duration><type>half</type><notations><slur type="stop" number="1"/></notations></note></measure>
<measure number="14"><direction><direction-type><dynamics><f/></dynamics></direction-type></direction>
<note><pitch><step>A</step><octave>5</octave></pitch><duration>768</duration><type>half</type><dot/></note>
<note><pitch><step>G</step><octave>5</octave></pitch><duration>512</duration><type>half</type></note>
<note><pitch><step>F</step><octave>5</octave></pitch><duration>512</duration><type>half</type></note></measure>
<measure number="15"><note><pitch><step>D</step><octave>5</octave></pitch><duration>768</duration><type>half</type><dot/></note>
<note><rest/><duration>1024</duration><type>whole</type></note></measure>
<measure number="16"><note><rest/><duration>1792</duration><type>whole</type></note></measure>
<measure number="17"><note><rest/><duration>1792</duration><type>whole</type></note></measure>
<measure number="18"><note><rest/><duration>1792</duration><type>whole</type></note></measure>
<measure number="19"><note><rest/><duration>1792</duration><type>whole</type></note></measure>
<measure number="20"><note><rest/><duration>1792</duration><type>whole</type></note></measure>
<measure number="21"><attributes><key><fifths>4</fifths><mode>major</mode></key><time><beats>9</beats><beat-type>8</beat-type></time></attributes>
<note><rest/><duration>1152</duration><type>whole</type><dot/></note></measure>
<measure number="22"><note><rest/><duration>1152</duration><type>whole</type><dot/></note></measure>
<measure number="23"><note><rest/><duration>1152</duration><type>whole</type><dot/></note></measure>
<measure number="24"><note><rest/><duration>1152</duration><type>whole</type><dot/></note></measure>
<measure number="25"><note><rest/><duration>1152</duration><type>whole</type><dot/></note></measure>
<measure number="26"><note><rest/><duration>1152</duration><type>whole</type><dot/></note></measure>
<measure number="27"><note><rest/><duration>1152</duration><type>whole</type><dot/></note></measure>
<measure number="28"><note><rest/><duration>1152</duration><type>whole</type><dot/></note></measure>
<measure number="29"><note><rest/><duration>1152</duration><type>whole</type><dot/></note></measure>
<measure number="30"><note><rest/><duration>1152</duration><type>whole</type><dot/></note></measure>
<measure number="31"><attributes><key><fifths>2</fifths><mode>minor</mode></key><time><beats>5</beats><beat-type>8</beat-type></time></attributes>
<note><rest/><duration>640</duration><type>whole</type></note></measure>
<measure number="32"><attributes><time><beats>7</beats><beat-type>8</beat-type></time></attributes>
<note><rest/><duration>896</duration><type>whole</type></note></measure>
<measure number="33"><attributes><time><beats>5</beats><beat-type>8</beat-type></time></attributes>
<note><rest/><duration>640</duration><type>whole</type></note></measure>
<measure number="34"><attributes><time><beats>7</beats><beat-type>8</beat-type></time></attributes>
<note><rest/><duration>896</duration><type>whole</type></note></measure>
<measure number="35"><attributes><time><beats>5</beats><beat-type>8</beat-type></time></attributes>
<note><rest/><duration>640</duration><type>whole</type></note></measure>
<measure number="36"><attributes><time><beats>7</beats><beat-type>8</beat-type></time></attributes>
<note><rest/><duration>896</duration><type>whole</type></note></measure>
<measure number="37"><attributes><time><beats>5</beats><beat-type>8</beat-type></time></attributes>
<note><rest/><duration>640</duration><type>whole</type></note></measure>
<measure number="38"><attributes><time><beats>7</beats><beat-type>8</beat-type></time></attributes>
<note><rest/><duration>896</duration><type>whole</type></note></measure>
<measure number="39"><attributes><key><fifths>2</fifths><mode>major</mode></key><time><beats>11</beats><beat-type>8</beat-type></time></attributes>
<note><rest/><duration>512</duration><type>half</type></note>
<note><pitch><step>B</step><octave>5</octave></pitch><duration>256</duration><type>quarter</type></note>
<note><rest/><duration>640</duration><type>half</type><dot/></note></measure>
<measure number="40"><note><pitch><step>F</step><alter>1</alter><octave>5</octave></pitch><duration>640</duration><type>half</type><dot/></note>
<note><rest/><duration>768</duration><type>half</type><dot/></note></measure>
<measure number="41"><note><rest/><duration>1408</duration><type>whole</type></note></measure>
<measure number="42"><note><rest/><duration>1408</duration><type>whole</type></note></measure>
<measure number="43"><note><rest/><duration>1408</duration><type>whole</type></note></measure>
<measure number="44"><note><rest/><duration>1408</duration><type>whole</type></note></measure>
<measure number="45"><note><rest/><duration>1408</duration><type>whole</type></note></measure>
<measure number="46"><note><rest/><duration>1408</duration><type>whole</type></note></measure>
<measure number="47"><note><rest/><duration>1408</duration><type>whole</type></note></measure>
<measure number="48"><direction><direction-type><dynamics><f/></dynamics></direction-type></direction>
<note><pitch><step>G</step><octave>5</octave></pitch><duration>512</duration><type>half</type><notations><slur type="start" number="1"/></notations></note>
<note><pitch><step>A</step><octave>5</octave></pitch><duration>384</duration><type>quarter</type><dot/></note>
<note><pitch><step>B</step><octave>5</octave></pitch><duration>512</duration><type>half</type><notations><slur type="stop" number="1"/></notations></note></measure>
<measure number="49"><attributes><time><beats>4</beats><beat-type>4</beat-type></time></attributes>
<direction><direction-type><dynamics><f/></dynamics></direction-type></direction>
<note><pitch><step>D</step><octave>5</octave></pitch><duration>512</duration><type>half</type></note>
<note><pitch><step>B</step><octave>5</octave></pitch><duration>256</duration><type>quarter</type></note>
<note><pitch><step>A</step><octave>5</octave></pitch><duration>256</duration><type>quarter</type></note></measure>
<measure number="50"><note><pitch><step>A</step><octave>5</octave></pitch><duration>768</duration><type>half</type><dot/></note>
<note><rest/><duration>256</duration><type>quarter</type></note></measure>
<measure number="51"><direction><direction-type><dynamics><ff/></dynamics></direction-type></direction>
<note><pitch><step>A</step><octave>5</octave></pitch><duration>768</duration><type>half</type><dot/></note>
<note><pitch><step>A</step><octave>5</octave></pitch><duration>256</duration><type>quarter</type></note></measure>
<measure number="52"><note><pitch><step>B</step><octave>5</octave></pitch><duration>512</duration><type>half</type></note>
<note><pitch><step>A</step><octave>5</octave></pitch><duration>512</duration><type>half</type></note></measure>
<measure number="53"><direction><direction-type><dynamics><fff/></dynamics></direction-type></direction>
<note><pitch><step>D</step><octave>6</octave></pitch><duration>1024</duration><type>whole</type></note></measure>
<measure number="54"><direction><direction-type><dynamics><mf/></dynamics></direction-type></direction>
<note><pitch><step>B</step><octave>5</octave></pitch><duration>512</duration><type>half</type></note>
<note><pitch><step>A</step><octave>5</octave></pitch><duration>512</duration><type>half</type></note></measure>
<measure number="55"><note><pitch><step>D</step><octave>6</octave></pitch><duration>1024</duration><type>whole</type><notations><fermata type="upright"/></notations></note>
<barline><bar-style>light-heavy</bar-style></barline></measure>
</part>

<!-- ============================================================ -->
<!-- PART 4: VIOLIN - Lead melodic voice -->
<!-- ============================================================ -->
<part id="P4">
<measure number="1"><attributes><divisions>256</divisions><key><fifths>-3</fifths><mode>minor</mode></key><time><beats>7</beats><beat-type>4</beat-type></time><clef><sign>G</sign><line>2</line></clef></attributes>
<note><rest/><duration>1792</duration><type>whole</type></note></measure>
<measure number="2"><note><rest/><duration>1792</duration><type>whole</type></note></measure>
<measure number="3"><note><rest/><duration>1792</duration><type>whole</type></note></measure>
<measure number="4"><note><rest/><duration>1792</duration><type>whole</type></note></measure>
<measure number="5"><note><rest/><duration>1792</duration><type>whole</type></note></measure>
<measure number="6"><note><rest/><duration>1792</duration><type>whole</type></note></measure>
<measure number="7"><direction><direction-type><dynamics><p/></dynamics></direction-type></direction>
<note><pitch><step>D</step><octave>5</octave></pitch><duration>768</duration><type>half</type><dot/><notations><slur type="start" number="1"/></notations></note>
<note><pitch><step>C</step><octave>5</octave></pitch><duration>1024</duration><type>whole</type><notations><slur type="stop" number="1"/></notations></note></measure>
<measure number="8"><note><rest/><duration>1792</duration><type>whole</type></note></measure>
<measure number="9"><note><rest/><duration>1792</duration><type>whole</type></note></measure>
<measure number="10"><direction><direction-type><dynamics><mf/></dynamics></direction-type></direction>
<direction><direction-type><words font-style="italic">con forza</words></direction-type></direction>
<note><pitch><step>D</step><octave>5</octave></pitch><duration>256</duration><type>quarter</type><notations><slur type="start" number="1"/></notations></note>
<note><pitch><step>F</step><octave>5</octave></pitch><duration>256</duration><type>quarter</type></note>
<note><pitch><step>A</step><alter>-1</alter><octave>5</octave></pitch><duration>256</duration><type>quarter</type></note>
<note><pitch><step>B</step><alter>-1</alter><octave>5</octave></pitch><duration>256</duration><type>quarter</type></note>
<note><pitch><step>C</step><octave>6</octave></pitch><duration>512</duration><type>half</type></note>
<note><pitch><step>B</step><alter>-1</alter><octave>5</octave></pitch><duration>256</duration><type>quarter</type><notations><slur type="stop" number="1"/></notations></note></measure>
<measure number="11"><direction><direction-type><dynamics><f/></dynamics></direction-type></direction>
<note><pitch><step>A</step><alter>-1</alter><octave>5</octave></pitch><duration>256</duration><type>quarter</type><notations><slur type="start" number="1"/></notations></note>
<note><pitch><step>G</step><octave>5</octave></pitch><duration>128</duration><type>eighth</type></note>
<note><pitch><step>F</step><octave>5</octave></pitch><duration>128</duration><type>eighth</type></note>
<note><pitch><step>E</step><alter>-1</alter><octave>5</octave></pitch><duration>256</duration><type>quarter</type></note>
<note><pitch><step>F</step><octave>5</octave></pitch><duration>128</duration><type>eighth</type></note>
<note><pitch><step>G</step><octave>5</octave></pitch><duration>384</duration><type>quarter</type><dot/></note>
<note><pitch><step>G</step><octave>5</octave></pitch><duration>256</duration><type>quarter</type></note>
<note><pitch><step>C</step><octave>6</octave></pitch><duration>256</duration><type>quarter</type><notations><slur type="stop" number="1"/></notations></note></measure>
<measure number="12"><note><pitch><step>B</step><alter>-1</alter><octave>5</octave></pitch><duration>384</duration><type>quarter</type><dot/><notations><slur type="start" number="1"/></notations></note>
<note><pitch><step>A</step><alter>-1</alter><octave>5</octave></pitch><duration>128</duration><type>eighth</type></note>
<note><pitch><step>G</step><octave>5</octave></pitch><duration>256</duration><type>quarter</type></note>
<note><pitch><step>F</step><octave>5</octave></pitch><duration>256</duration><type>quarter</type></note>
<note><pitch><step>E</step><alter>-1</alter><octave>5</octave></pitch><duration>256</duration><type>quarter</type></note>
<note><pitch><step>C</step><octave>5</octave></pitch><duration>256</duration><type>quarter</type></note>
<note><pitch><step>F</step><alter>1</alter><octave>5</octave></pitch><duration>256</duration><type>quarter</type><accidental>sharp</accidental><notations><slur type="stop" number="1"/></notations></note></measure>
<measure number="13"><note><rest/><duration>1792</duration><type>whole</type></note></measure>
<measure number="14"><note><rest/><duration>1792</duration><type>whole</type></note></measure>
<measure number="15"><note><rest/><duration>1792</duration><type>whole</type></note></measure>
<measure number="16"><note><rest/><duration>1792</duration><type>whole</type></note></measure>
<measure number="17"><note><rest/><duration>1792</duration><type>whole</type></note></measure>
<measure number="18"><note><rest/><duration>1792</duration><type>whole</type></note></measure>
<measure number="19"><note><rest/><duration>1792</duration><type>whole</type></note></measure>
<measure number="20"><note><rest/><duration>1792</duration><type>whole</type></note></measure>
<measure number="21"><attributes><key><fifths>2</fifths><mode>major</mode></key><time><beats>9</beats><beat-type>8</beat-type></time></attributes>
<direction><direction-type><words font-style="italic">dolce, floating</words></direction-type></direction>
<direction><direction-type><dynamics><p/></dynamics></direction-type></direction>
<note><pitch><step>F</step><alter>1</alter><octave>5</octave></pitch><duration>384</duration><type>quarter</type><dot/><notations><slur type="start" number="1"/></notations></note>
<note><pitch><step>F</step><alter>1</alter><octave>5</octave></pitch><duration>256</duration><type>quarter</type></note>
<note><pitch><step>E</step><octave>5</octave></pitch><duration>256</duration><type>quarter</type></note>
<note><pitch><step>D</step><octave>5</octave></pitch><duration>256</duration><type>quarter</type><notations><slur type="stop" number="1"/></notations></note></measure>
<measure number="22"><note><pitch><step>E</step><octave>5</octave></pitch><duration>768</duration><type>half</type><dot/><notations><slur type="start" number="1"/></notations></note>
<note><pitch><step>E</step><octave>5</octave></pitch><duration>128</duration><type>eighth</type></note>
<note><pitch><step>F</step><alter>1</alter><octave>5</octave></pitch><duration>128</duration><type>eighth</type></note>
<note><pitch><step>G</step><octave>5</octave></pitch><duration>128</duration><type>eighth</type><notations><slur type="stop" number="1"/></notations></note></measure>
<measure number="23"><note><rest/><duration>1152</duration><type>whole</type><dot/></note></measure>
<measure number="24"><note><rest/><duration>1152</duration><type>whole</type><dot/></note></measure>
<measure number="25"><direction><direction-type><words font-style="italic">fragile, senza vibrato - SOLO</words></direction-type></direction>
<direction><direction-type><dynamics><pp/></dynamics></direction-type></direction>
<note><pitch><step>A</step><octave>5</octave></pitch><duration>768</duration><type>half</type><dot/><notations><slur type="start" number="1"/></notations></note>
<note><pitch><step>G</step><octave>5</octave></pitch><duration>256</duration><type>quarter</type></note>
<note><pitch><step>F</step><alter>1</alter><octave>5</octave></pitch><duration>128</duration><type>eighth</type><notations><slur type="stop" number="1"/></notations></note></measure>
<measure number="26"><direction><direction-type><words font-style="italic">rubato</words></direction-type></direction>
<note><pitch><step>G</step><octave>5</octave></pitch><duration>768</duration><type>half</type><dot/></note>
<note><pitch><step>G</step><octave>5</octave></pitch><duration>256</duration><type>quarter</type></note>
<note><pitch><step>F</step><octave>5</octave></pitch><duration>128</duration><type>eighth</type><accidental>natural</accidental></note></measure>
<measure number="27"><note><rest/><duration>1152</duration><type>whole</type><dot/></note></measure>
<measure number="28"><note><rest/><duration>1152</duration><type>whole</type><dot/></note></measure>
<measure number="29"><note><rest/><duration>1152</duration><type>whole</type><dot/></note></measure>
<measure number="30"><note><rest/><duration>1152</duration><type>whole</type><dot/></note></measure>
<measure number="31"><attributes><key><fifths>0</fifths><mode>minor</mode></key><time><beats>5</beats><beat-type>8</beat-type></time></attributes>
<note><rest/><duration>640</duration><type>whole</type></note></measure>
<measure number="32"><attributes><time><beats>7</beats><beat-type>8</beat-type></time></attributes>
<note><rest/><duration>896</duration><type>whole</type></note></measure>
<measure number="33"><attributes><time><beats>5</beats><beat-type>8</beat-type></time></attributes>
<note><rest/><duration>640</duration><type>whole</type></note></measure>
<measure number="34"><attributes><time><beats>7</beats><beat-type>8</beat-type></time></attributes>
<note><rest/><duration>256</duration><type>quarter</type></note>
<note><pitch><step>G</step><octave>5</octave></pitch><duration>128</duration><type>eighth</type></note>
<note><rest/><duration>512</duration><type>half</type></note></measure>
<measure number="35"><attributes><time><beats>5</beats><beat-type>8</beat-type></time></attributes>
<note><rest/><duration>640</duration><type>whole</type></note></measure>
<measure number="36"><attributes><time><beats>7</beats><beat-type>8</beat-type></time></attributes>
<note><rest/><duration>896</duration><type>whole</type></note></measure>
<measure number="37"><attributes><time><beats>5</beats><beat-type>8</beat-type></time></attributes>
<note><rest/><duration>640</duration><type>whole</type></note></measure>
<measure number="38"><attributes><time><beats>7</beats><beat-type>8</beat-type></time></attributes>
<note><rest/><duration>896</duration><type>whole</type></note></measure>
<measure number="39"><attributes><key><fifths>0</fifths><mode>major</mode></key><time><beats>11</beats><beat-type>8</beat-type></time></attributes>
<note><rest/><duration>256</duration><type>quarter</type></note>
<note><pitch><step>E</step><octave>5</octave></pitch><duration>256</duration><type>quarter</type></note>
<note><rest/><duration>128</duration><type>eighth</type></note>
<note><pitch><step>G</step><octave>5</octave></pitch><duration>256</duration><type>quarter</type></note>
<note><rest/><duration>512</duration><type>half</type></note></measure>
<measure number="40"><direction><direction-type><words font-style="italic">(motif inverted)</words></direction-type></direction>
<note><rest/><duration>1408</duration><type>whole</type></note></measure>
<measure number="41"><note><rest/><duration>1408</duration><type>whole</type></note></measure>
<measure number="42"><note><rest/><duration>1408</duration><type>whole</type></note></measure>
<measure number="43"><note><rest/><duration>1408</duration><type>whole</type></note></measure>
<measure number="44"><note><rest/><duration>1408</duration><type>whole</type></note></measure>
<measure number="45"><note><rest/><duration>1408</duration><type>whole</type></note></measure>
<measure number="46"><note><rest/><duration>1408</duration><type>whole</type></note></measure>
<measure number="47"><note><rest/><duration>1408</duration><type>whole</type></note></measure>
<measure number="48"><direction><direction-type><dynamics><f/></dynamics></direction-type></direction>
<note><pitch><step>E</step><octave>5</octave></pitch><duration>512</duration><type>half</type><notations><slur type="start" number="1"/></notations></note>
<note><pitch><step>F</step><octave>5</octave></pitch><duration>384</duration><type>quarter</type><dot/></note>
<note><pitch><step>G</step><octave>5</octave></pitch><duration>512</duration><type>half</type><notations><slur type="stop" number="1"/></notations></note></measure>
<measure number="49"><attributes><time><beats>4</beats><beat-type>4</beat-type></time></attributes>
<direction><direction-type><dynamics><f/></dynamics></direction-type></direction>
<note><pitch><step>C</step><octave>5</octave></pitch><duration>512</duration><type>half</type></note>
<note><pitch><step>A</step><octave>5</octave></pitch><duration>256</duration><type>quarter</type></note>
<note><pitch><step>G</step><octave>5</octave></pitch><duration>256</duration><type>quarter</type></note></measure>
<measure number="50"><note><pitch><step>G</step><octave>5</octave></pitch><duration>768</duration><type>half</type><dot/></note>
<note><rest/><duration>256</duration><type>quarter</type></note></measure>
<measure number="51"><direction><direction-type><dynamics><ff/></dynamics></direction-type></direction>
<note><pitch><step>G</step><octave>5</octave></pitch><duration>768</duration><type>half</type><dot/></note>
<note><pitch><step>G</step><octave>5</octave></pitch><duration>256</duration><type>quarter</type></note></measure>
<measure number="52"><note><pitch><step>A</step><octave>5</octave></pitch><duration>512</duration><type>half</type></note>
<note><pitch><step>G</step><octave>5</octave></pitch><duration>512</duration><type>half</type></note></measure>
<measure number="53"><direction><direction-type><dynamics><fff/></dynamics></direction-type></direction>
<note><pitch><step>C</step><octave>6</octave></pitch><duration>1024</duration><type>whole</type></note></measure>
<measure number="54"><direction><direction-type><dynamics><mf/></dynamics></direction-type></direction>
<direction><direction-type><words font-style="italic">delicato, molto espressivo</words></direction-type></direction>
<note><pitch><step>G</step><octave>5</octave></pitch><duration>512</duration><type>half</type></note>
<note><pitch><step>E</step><octave>5</octave></pitch><duration>512</duration><type>half</type></note></measure>
<measure number="55"><note><pitch><step>C</step><octave>6</octave></pitch><duration>1024</duration><type>whole</type><notations><fermata type="upright"/></notations></note>
<barline><bar-style>light-heavy</bar-style></barline></measure>
</part>

<!-- Parts 5-8 (Viola, Cello, Bass, Guitar) follow same 55-bar structure -->
<!-- Key features: Viola counterlines, Cello Bass Poetry (m.3 α motif), Bass pedals, Guitar harmonic pads -->

</score-partwise>

