<?xml version="1.0" encoding="UTF-8"?>
<!DOCTYPE score-partwise PUBLIC "-//Recordare//DTD MusicXML 4.0 Partwise//EN" "http://www.musicxml.org/dtds/partwise.dtd">
<score-partwise version="4.0">
  <work>
    <work-title>The Master's Palette — Movement II: Gil Evans Orchestral Cloud</work-title>
  </work>
  <identification>
    <creator type="composer">Mike Bryant</creator>
    <encoding>
      <software>Cursor AI Assistant</software>
      <encoding-date>2025-12-10</encoding-date>
    </encoding>
  </identification>
  <defaults>
    <scaling>
      <millimeters>6.5</millimeters>
      <tenths>40</tenths>
    </scaling>
    <page-layout>
      <page-height>1683</page-height>
      <page-width>1190</page-width>
      <page-margins type="both">
        <left-margin>70</left-margin>
        <right-margin>70</right-margin>
        <top-margin>88</top-margin>
        <bottom-margin>88</bottom-margin>
      </page-margins>
    </page-layout>
    <system-layout>
      <system-distance>160</system-distance>
      <top-system-distance>120</top-system-distance>
    </system-layout>
    <staff-layout>
      <staff-distance>80</staff-distance>
    </staff-layout>
  </defaults>
  <part-list>
    <score-part id="P1">
      <part-name>Piano</part-name>
      <part-abbreviation>Pno.</part-abbreviation>
    </score-part>
  </part-list>
  <part id="P1">
    <!-- ===== SECTION A: FLOATING MIST (mm. 1-8) ===== -->
    <measure number="1">
      <attributes>
        <divisions>256</divisions>
        <key><fifths>0</fifths></key>
        <time><beats>4</beats><beat-type>4</beat-type></time>
        <staves>2</staves>
        <clef number="1"><sign>G</sign><line>2</line></clef>
        <clef number="2"><sign>F</sign><line>4</line></clef>
      </attributes>
      <direction placement="above">
        <direction-type>
          <words default-y="115" font-size="16" font-weight="bold">MOVEMENT II — Gil Evans Orchestral Cloud</words>
        </direction-type>
        <staff>1</staff>
      </direction>
      <direction placement="above">
        <direction-type>
          <rehearsal default-y="95" font-size="14" font-weight="bold" enclosure="rectangle">A</rehearsal>
        </direction-type>
        <staff>1</staff>
      </direction>
      <direction placement="above">
        <direction-type>
          <metronome default-y="85">
            <beat-unit>quarter</beat-unit>
            <per-minute>58</per-minute>
          </metronome>
        </direction-type>
        <sound tempo="58"/>
        <staff>1</staff>
      </direction>
      <direction placement="above">
        <direction-type>
          <words default-y="70" font-size="10" font-style="italic">Floating, ethereal — like morning fog over water</words>
        </direction-type>
        <staff>1</staff>
      </direction>
      <direction placement="above">
        <direction-type>
          <dynamics default-y="55"><pp/></dynamics>
        </direction-type>
        <staff>1</staff>
      </direction>
      <harmony default-y="45">
        <root><root-step>X</root-step></root>
        <kind text="Ebmaj9(#11)">none</kind>
        <staff>1</staff>
      </harmony>
      <!-- RH: Long singing line entering on beat 2 -->
      <note>
        <rest/>
        <duration>256</duration>
        <type>quarter</type>
        <staff>1</staff>
        <voice>1</voice>
      </note>
      <note>
        <pitch>
          <step>G</step>
          <octave>5</octave>
        </pitch>
        <duration>384</duration>
        <type>quarter</type>
        <dot/>
        <staff>1</staff>
        <voice>1</voice>
        <notations>
          <slur type="start" number="1"/>
        </notations>
      </note>
      <note>
        <pitch>
          <step>F</step>
          <octave>5</octave>
        </pitch>
        <duration>128</duration>
        <type>eighth</type>
        <staff>1</staff>
        <voice>1</voice>
      </note>
      <note>
        <pitch>
          <step>A</step>
          <octave>5</octave>
        </pitch>
        <duration>256</duration>
        <type>quarter</type>
        <staff>1</staff>
        <voice>1</voice>
      </note>
      <backup><duration>1024</duration></backup>
      <!-- LH: Eb pedal with open voicing -->
      <note>
        <pitch>
          <step>E</step>
          <alter>-1</alter>
          <octave>2</octave>
        </pitch>
        <duration>1024</duration>
        <type>whole</type>
        <staff>2</staff>
        <voice>5</voice>
      </note>
      <note>
        <chord/>
        <pitch>
          <step>B</step>
          <alter>-1</alter>
          <octave>2</octave>
        </pitch>
        <duration>1024</duration>
        <type>whole</type>
        <staff>2</staff>
        <voice>5</voice>
      </note>
      <note>
        <chord/>
        <pitch>
          <step>D</step>
          <octave>4</octave>
        </pitch>
        <duration>1024</duration>
        <type>whole</type>
        <staff>2</staff>
        <voice>5</voice>
      </note>
      <note>
        <chord/>
        <pitch>
          <step>A</step>
          <octave>4</octave>
        </pitch>
        <duration>1024</duration>
        <type>whole</type>
        <staff>2</staff>
        <voice>5</voice>
      </note>
    </measure>

    <measure number="2">
      <harmony default-y="45">
        <root><root-step>X</root-step></root>
        <kind text="Dbmaj7(#11)/Eb">none</kind>
        <staff>1</staff>
      </harmony>
      <!-- Upper structure shift over Eb pedal -->
      <note>
        <pitch>
          <step>B</step>
          <alter>-1</alter>
          <octave>5</octave>
        </pitch>
        <duration>512</duration>
        <type>half</type>
        <staff>1</staff>
        <voice>1</voice>
      </note>
      <note>
        <pitch>
          <step>A</step>
          <alter>-1</alter>
          <octave>5</octave>
        </pitch>
        <duration>256</duration>
        <type>quarter</type>
        <staff>1</staff>
        <voice>1</voice>
      </note>
      <note>
        <pitch>
          <step>G</step>
          <octave>5</octave>
        </pitch>
        <duration>256</duration>
        <type>quarter</type>
        <staff>1</staff>
        <voice>1</voice>
        <notations>
          <slur type="stop" number="1"/>
        </notations>
      </note>
      <backup><duration>1024</duration></backup>
      <!-- Eb pedal continues, upper structure Db -->
      <note>
        <pitch>
          <step>E</step>
          <alter>-1</alter>
          <octave>2</octave>
        </pitch>
        <duration>1024</duration>
        <type>whole</type>
        <staff>2</staff>
        <voice>5</voice>
      </note>
      <note>
        <chord/>
        <pitch>
          <step>A</step>
          <alter>-1</alter>
          <octave>3</octave>
        </pitch>
        <duration>1024</duration>
        <type>whole</type>
        <staff>2</staff>
        <voice>5</voice>
      </note>
      <note>
        <chord/>
        <pitch>
          <step>C</step>
          <octave>4</octave>
        </pitch>
        <duration>1024</duration>
        <type>whole</type>
        <staff>2</staff>
        <voice>5</voice>
      </note>
      <note>
        <chord/>
        <pitch>
          <step>G</step>
          <octave>4</octave>
        </pitch>
        <duration>1024</duration>
        <type>whole</type>
        <staff>2</staff>
        <voice>5</voice>
      </note>
    </measure>

    <measure number="3">
      <direction placement="above">
        <direction-type>
          <dynamics default-y="55"><p/></dynamics>
        </direction-type>
        <staff>1</staff>
      </direction>
      <harmony default-y="45">
        <root><root-step>X</root-step></root>
        <kind text="Fmaj9(#11)">none</kind>
        <staff>1</staff>
      </harmony>
      <!-- New tonal center, melody develops -->
      <note>
        <pitch>
          <step>E</step>
          <octave>5</octave>
        </pitch>
        <duration>128</duration>
        <type>eighth</type>
        <staff>1</staff>
        <voice>1</voice>
        <notations>
          <slur type="start" number="1"/>
        </notations>
      </note>
      <note>
        <pitch>
          <step>G</step>
          <octave>5</octave>
        </pitch>
        <duration>128</duration>
        <type>eighth</type>
        <staff>1</staff>
        <voice>1</voice>
      </note>
      <note>
        <pitch>
          <step>A</step>
          <octave>5</octave>
        </pitch>
        <duration>256</duration>
        <type>quarter</type>
        <staff>1</staff>
        <voice>1</voice>
      </note>
      <note>
        <pitch>
          <step>B</step>
          <octave>5</octave>
        </pitch>
        <duration>512</duration>
        <type>half</type>
        <staff>1</staff>
        <voice>1</voice>
        <notations>
          <slur type="stop" number="1"/>
          <articulations><tenuto/></articulations>
        </notations>
      </note>
      <backup><duration>1024</duration></backup>
      <note>
        <pitch>
          <step>F</step>
          <octave>2</octave>
        </pitch>
        <duration>1024</duration>
        <type>whole</type>
        <staff>2</staff>
        <voice>5</voice>
      </note>
      <note>
        <chord/>
        <pitch>
          <step>C</step>
          <octave>3</octave>
        </pitch>
        <duration>1024</duration>
        <type>whole</type>
        <staff>2</staff>
        <voice>5</voice>
      </note>
      <note>
        <chord/>
        <pitch>
          <step>E</step>
          <octave>4</octave>
        </pitch>
        <duration>1024</duration>
        <type>whole</type>
        <staff>2</staff>
        <voice>5</voice>
      </note>
      <note>
        <chord/>
        <pitch>
          <step>B</step>
          <octave>4</octave>
        </pitch>
        <duration>1024</duration>
        <type>whole</type>
        <staff>2</staff>
        <voice>5</voice>
      </note>
    </measure>

    <measure number="4">
      <harmony default-y="45">
        <root><root-step>X</root-step></root>
        <kind text="Cmaj13(#11)">none</kind>
        <staff>1</staff>
      </harmony>
      <note>
        <pitch>
          <step>A</step>
          <octave>5</octave>
        </pitch>
        <duration>768</duration>
        <type>half</type>
        <dot/>
        <staff>1</staff>
        <voice>1</voice>
        <notations>
          <slur type="start" number="1"/>
        </notations>
      </note>
      <note>
        <pitch>
          <step>G</step>
          <octave>5</octave>
        </pitch>
        <duration>256</duration>
        <type>quarter</type>
        <staff>1</staff>
        <voice>1</voice>
        <notations>
          <slur type="stop" number="1"/>
        </notations>
      </note>
      <backup><duration>1024</duration></backup>
      <note>
        <pitch>
          <step>C</step>
          <octave>2</octave>
        </pitch>
        <duration>1024</duration>
        <type>whole</type>
        <staff>2</staff>
        <voice>5</voice>
      </note>
      <note>
        <chord/>
        <pitch>
          <step>G</step>
          <octave>2</octave>
        </pitch>
        <duration>1024</duration>
        <type>whole</type>
        <staff>2</staff>
        <voice>5</voice>
      </note>
      <note>
        <chord/>
        <pitch>
          <step>E</step>
          <octave>3</octave>
        </pitch>
        <duration>1024</duration>
        <type>whole</type>
        <staff>2</staff>
        <voice>5</voice>
      </note>
      <note>
        <chord/>
        <pitch>
          <step>B</step>
          <octave>3</octave>
        </pitch>
        <duration>1024</duration>
        <type>whole</type>
        <staff>2</staff>
        <voice>5</voice>
      </note>
      <note>
        <chord/>
        <pitch>
          <step>F</step>
          <alter>1</alter>
          <octave>4</octave>
        </pitch>
        <duration>1024</duration>
        <type>whole</type>
        <staff>2</staff>
        <voice>5</voice>
      </note>
    </measure>

    <measure number="5">
      <print new-system="yes"/>
      <direction placement="above">
        <direction-type>
          <words default-y="70" font-size="9" font-style="italic">dolce, espressivo</words>
        </direction-type>
        <staff>1</staff>
      </direction>
      <harmony default-y="45">
        <root><root-step>X</root-step></root>
        <kind text="Bbmaj9(13)">none</kind>
        <staff>1</staff>
      </harmony>
      <note>
        <pitch>
          <step>F</step>
          <octave>5</octave>
        </pitch>
        <duration>256</duration>
        <type>quarter</type>
        <staff>1</staff>
        <voice>1</voice>
        <notations>
          <slur type="start" number="1"/>
        </notations>
      </note>
      <note>
        <pitch>
          <step>G</step>
          <octave>5</octave>
        </pitch>
        <duration>128</duration>
        <type>eighth</type>
        <staff>1</staff>
        <voice>1</voice>
      </note>
      <note>
        <pitch>
          <step>A</step>
          <octave>5</octave>
        </pitch>
        <duration>128</duration>
        <type>eighth</type>
        <staff>1</staff>
        <voice>1</voice>
      </note>
      <note>
        <pitch>
          <step>B</step>
          <alter>-1</alter>
          <octave>5</octave>
        </pitch>
        <duration>512</duration>
        <type>half</type>
        <staff>1</staff>
        <voice>1</voice>
        <notations>
          <slur type="stop" number="1"/>
        </notations>
      </note>
      <backup><duration>1024</duration></backup>
      <note>
        <pitch>
          <step>B</step>
          <alter>-1</alter>
          <octave>1</octave>
        </pitch>
        <duration>1024</duration>
        <type>whole</type>
        <staff>2</staff>
        <voice>5</voice>
      </note>
      <note>
        <chord/>
        <pitch>
          <step>F</step>
          <octave>3</octave>
        </pitch>
        <duration>1024</duration>
        <type>whole</type>
        <staff>2</staff>
        <voice>5</voice>
      </note>
      <note>
        <chord/>
        <pitch>
          <step>A</step>
          <octave>3</octave>
        </pitch>
        <duration>1024</duration>
        <type>whole</type>
        <staff>2</staff>
        <voice>5</voice>
      </note>
      <note>
        <chord/>
        <pitch>
          <step>D</step>
          <octave>4</octave>
        </pitch>
        <duration>1024</duration>
        <type>whole</type>
        <staff>2</staff>
        <voice>5</voice>
      </note>
      <note>
        <chord/>
        <pitch>
          <step>G</step>
          <octave>4</octave>
        </pitch>
        <duration>1024</duration>
        <type>whole</type>
        <staff>2</staff>
        <voice>5</voice>
      </note>
    </measure>

    <measure number="6">
      <harmony default-y="45">
        <root><root-step>X</root-step></root>
        <kind text="Abmaj7(#5,#11)">none</kind>
        <staff>1</staff>
      </harmony>
      <!-- Chromatic upper structure shift -->
      <note>
        <pitch>
          <step>C</step>
          <octave>6</octave>
        </pitch>
        <duration>512</duration>
        <type>half</type>
        <staff>1</staff>
        <voice>1</voice>
        <notations>
          <slur type="start" number="1"/>
          <articulations><tenuto/></articulations>
        </notations>
      </note>
      <note>
        <pitch>
          <step>B</step>
          <alter>-1</alter>
          <octave>5</octave>
        </pitch>
        <duration>256</duration>
        <type>quarter</type>
        <staff>1</staff>
        <voice>1</voice>
      </note>
      <note>
        <pitch>
          <step>A</step>
          <alter>-1</alter>
          <octave>5</octave>
        </pitch>
        <duration>256</duration>
        <type>quarter</type>
        <staff>1</staff>
        <voice>1</voice>
        <notations>
          <slur type="stop" number="1"/>
        </notations>
      </note>
      <backup><duration>1024</duration></backup>
      <note>
        <pitch>
          <step>A</step>
          <alter>-1</alter>
          <octave>2</octave>
        </pitch>
        <duration>1024</duration>
        <type>whole</type>
        <staff>2</staff>
        <voice>5</voice>
      </note>
      <note>
        <chord/>
        <pitch>
          <step>E</step>
          <octave>3</octave>
        </pitch>
        <duration>1024</duration>
        <type>whole</type>
        <staff>2</staff>
        <voice>5</voice>
      </note>
      <note>
        <chord/>
        <pitch>
          <step>G</step>
          <octave>3</octave>
        </pitch>
        <duration>1024</duration>
        <type>whole</type>
        <staff>2</staff>
        <voice>5</voice>
      </note>
      <note>
        <chord/>
        <pitch>
          <step>D</step>
          <octave>4</octave>
        </pitch>
        <duration>1024</duration>
        <type>whole</type>
        <staff>2</staff>
        <voice>5</voice>
      </note>
    </measure>

    <measure number="7">
      <direction placement="above">
        <direction-type>
          <words default-y="70" font-size="9" font-style="italic">Pedal: F bass through m.8</words>
        </direction-type>
        <staff>1</staff>
      </direction>
      <harmony default-y="45">
        <root><root-step>X</root-step></root>
        <kind text="Gbmaj7(#11)/F">none</kind>
        <staff>1</staff>
      </harmony>
      <!-- Tritone substitution color over F pedal -->
      <note>
        <pitch>
          <step>G</step>
          <alter>-1</alter>
          <octave>5</octave>
        </pitch>
        <duration>256</duration>
        <type>quarter</type>
        <staff>1</staff>
        <voice>1</voice>
        <notations>
          <slur type="start" number="1"/>
        </notations>
      </note>
      <note>
        <pitch>
          <step>A</step>
          <alter>-1</alter>
          <octave>5</octave>
        </pitch>
        <duration>256</duration>
        <type>quarter</type>
        <staff>1</staff>
        <voice>1</voice>
      </note>
      <note>
        <pitch>
          <step>B</step>
          <alter>-1</alter>
          <octave>5</octave>
        </pitch>
        <duration>256</duration>
        <type>quarter</type>
        <staff>1</staff>
        <voice>1</voice>
      </note>
      <note>
        <pitch>
          <step>C</step>
          <octave>6</octave>
        </pitch>
        <duration>256</duration>
        <type>quarter</type>
        <staff>1</staff>
        <voice>1</voice>
        <notations>
          <slur type="stop" number="1"/>
        </notations>
      </note>
      <backup><duration>1024</duration></backup>
      <note>
        <pitch>
          <step>F</step>
          <octave>2</octave>
        </pitch>
        <duration>1024</duration>
        <type>whole</type>
        <staff>2</staff>
        <voice>5</voice>
      </note>
      <note>
        <chord/>
        <pitch>
          <step>B</step>
          <alter>-1</alter>
          <octave>3</octave>
        </pitch>
        <duration>1024</duration>
        <type>whole</type>
        <staff>2</staff>
        <voice>5</voice>
      </note>
      <note>
        <chord/>
        <pitch>
          <step>D</step>
          <alter>-1</alter>
          <octave>4</octave>
        </pitch>
        <duration>1024</duration>
        <type>whole</type>
        <staff>2</staff>
        <voice>5</voice>
      </note>
      <note>
        <chord/>
        <pitch>
          <step>F</step>
          <octave>4</octave>
        </pitch>
        <duration>1024</duration>
        <type>whole</type>
        <staff>2</staff>
        <voice>5</voice>
      </note>
    </measure>

    <measure number="8">
      <direction placement="above">
        <direction-type>
          <dynamics default-y="55"><mp/></dynamics>
        </direction-type>
        <staff>1</staff>
      </direction>
      <harmony default-y="45">
        <root><root-step>X</root-step></root>
        <kind text="Fmaj13(#11)">none</kind>
        <staff>1</staff>
      </harmony>
      <!-- Arrival on F, prepare for 9/8 section -->
      <note>
        <pitch>
          <step>B</step>
          <octave>5</octave>
        </pitch>
        <duration>384</duration>
        <type>quarter</type>
        <dot/>
        <staff>1</staff>
        <voice>1</voice>
        <notations>
          <slur type="start" number="1"/>
        </notations>
      </note>
      <note>
        <pitch>
          <step>A</step>
          <octave>5</octave>
        </pitch>
        <duration>128</duration>
        <type>eighth</type>
        <staff>1</staff>
        <voice>1</voice>
      </note>
      <note>
        <pitch>
          <step>G</step>
          <octave>5</octave>
        </pitch>
        <duration>512</duration>
        <type>half</type>
        <staff>1</staff>
        <voice>1</voice>
        <notations>
          <slur type="stop" number="1"/>
          <articulations><tenuto/></articulations>
        </notations>
      </note>
      <backup><duration>1024</duration></backup>
      <note>
        <pitch>
          <step>F</step>
          <octave>2</octave>
        </pitch>
        <duration>1024</duration>
        <type>whole</type>
        <staff>2</staff>
        <voice>5</voice>
      </note>
      <note>
        <chord/>
        <pitch>
          <step>C</step>
          <octave>3</octave>
        </pitch>
        <duration>1024</duration>
        <type>whole</type>
        <staff>2</staff>
        <voice>5</voice>
      </note>
      <note>
        <chord/>
        <pitch>
          <step>E</step>
          <octave>4</octave>
        </pitch>
        <duration>1024</duration>
        <type>whole</type>
        <staff>2</staff>
        <voice>5</voice>
      </note>
      <note>
        <chord/>
        <pitch>
          <step>A</step>
          <octave>4</octave>
        </pitch>
        <duration>1024</duration>
        <type>whole</type>
        <staff>2</staff>
        <voice>5</voice>
      </note>
      <note>
        <chord/>
        <pitch>
          <step>D</step>
          <octave>5</octave>
        </pitch>
        <duration>1024</duration>
        <type>whole</type>
        <staff>2</staff>
        <voice>5</voice>
      </note>
    </measure>

    <!-- ===== SECTION B: EVANS METRIC FLOAT (9/8) — mm. 9-16 ===== -->
    <measure number="9">
      <print new-system="yes"/>
      <attributes>
        <time><beats>9</beats><beat-type>8</beat-type></time>
      </attributes>
      <direction placement="above">
        <direction-type>
          <rehearsal default-y="95" font-size="14" font-weight="bold" enclosure="rectangle">B</rehearsal>
        </direction-type>
        <staff>1</staff>
      </direction>
      <direction placement="above">
        <direction-type>
          <metronome default-y="85">
            <beat-unit>dotted-quarter</beat-unit>
            <per-minute>52</per-minute>
          </metronome>
        </direction-type>
        <sound tempo="52"/>
        <staff>1</staff>
      </direction>
      <direction placement="above">
        <direction-type>
          <words default-y="70" font-size="10" font-style="italic">Suspended, weightless — time dissolves</words>
        </direction-type>
        <staff>1</staff>
      </direction>
      <direction placement="above">
        <direction-type>
          <dynamics default-y="55"><p/></dynamics>
        </direction-type>
        <staff>1</staff>
      </direction>
      <harmony default-y="45">
        <root><root-step>X</root-step></root>
        <kind text="Dmaj9(#11)">none</kind>
        <staff>1</staff>
      </harmony>
      <!-- 9/8: 1152 divisions total (9 × 128) -->
      <note>
        <pitch>
          <step>F</step>
          <alter>1</alter>
          <octave>5</octave>
        </pitch>
        <duration>384</duration>
        <type>quarter</type>
        <dot/>
        <staff>1</staff>
        <voice>1</voice>
        <notations>
          <slur type="start" number="1"/>
        </notations>
      </note>
      <note>
        <pitch>
          <step>E</step>
          <octave>5</octave>
        </pitch>
        <duration>128</duration>
        <type>eighth</type>
        <staff>1</staff>
        <voice>1</voice>
      </note>
      <note>
        <pitch>
          <step>G</step>
          <alter>1</alter>
          <octave>5</octave>
        </pitch>
        <duration>256</duration>
        <type>quarter</type>
        <staff>1</staff>
        <voice>1</voice>
      </note>
      <note>
        <pitch>
          <step>A</step>
          <octave>5</octave>
        </pitch>
        <duration>384</duration>
        <type>quarter</type>
        <dot/>
        <staff>1</staff>
        <voice>1</voice>
        <notations>
          <slur type="stop" number="1"/>
        </notations>
      </note>
      <backup><duration>1152</duration></backup>
      <!-- LH: Open D major voicing -->
      <note>
        <pitch>
          <step>D</step>
          <octave>2</octave>
        </pitch>
        <duration>1152</duration>
        <type>whole</type>
        <dot/>
        <staff>2</staff>
        <voice>5</voice>
      </note>
      <note>
        <chord/>
        <pitch>
          <step>A</step>
          <octave>2</octave>
        </pitch>
        <duration>1152</duration>
        <type>whole</type>
        <dot/>
        <staff>2</staff>
        <voice>5</voice>
      </note>
      <note>
        <chord/>
        <pitch>
          <step>C</step>
          <alter>1</alter>
          <octave>4</octave>
        </pitch>
        <duration>1152</duration>
        <type>whole</type>
        <dot/>
        <staff>2</staff>
        <voice>5</voice>
      </note>
      <note>
        <chord/>
        <pitch>
          <step>G</step>
          <alter>1</alter>
          <octave>4</octave>
        </pitch>
        <duration>1152</duration>
        <type>whole</type>
        <dot/>
        <staff>2</staff>
        <voice>5</voice>
      </note>
    </measure>

    <measure number="10">
      <harmony default-y="45">
        <root><root-step>X</root-step></root>
        <kind text="Bmaj7(13)/D">none</kind>
        <staff>1</staff>
      </harmony>
      <!-- Upper structure B over D pedal -->
      <note>
        <pitch>
          <step>G</step>
          <alter>1</alter>
          <octave>5</octave>
        </pitch>
        <duration>512</duration>
        <type>half</type>
        <staff>1</staff>
        <voice>1</voice>
        <notations>
          <slur type="start" number="1"/>
          <articulations><tenuto/></articulations>
        </notations>
      </note>
      <note>
        <pitch>
          <step>F</step>
          <alter>1</alter>
          <octave>5</octave>
        </pitch>
        <duration>256</duration>
        <type>quarter</type>
        <staff>1</staff>
        <voice>1</voice>
      </note>
      <note>
        <pitch>
          <step>D</step>
          <alter>1</alter>
          <octave>5</octave>
        </pitch>
        <duration>384</duration>
        <type>quarter</type>
        <dot/>
        <staff>1</staff>
        <voice>1</voice>
        <notations>
          <slur type="stop" number="1"/>
        </notations>
      </note>
      <backup><duration>1152</duration></backup>
      <note>
        <pitch>
          <step>D</step>
          <octave>2</octave>
        </pitch>
        <duration>1152</duration>
        <type>whole</type>
        <dot/>
        <staff>2</staff>
        <voice>5</voice>
      </note>
      <note>
        <chord/>
        <pitch>
          <step>F</step>
          <alter>1</alter>
          <octave>3</octave>
        </pitch>
        <duration>1152</duration>
        <type>whole</type>
        <dot/>
        <staff>2</staff>
        <voice>5</voice>
      </note>
      <note>
        <chord/>
        <pitch>
          <step>A</step>
          <alter>1</alter>
          <octave>3</octave>
        </pitch>
        <duration>1152</duration>
        <type>whole</type>
        <dot/>
        <staff>2</staff>
        <voice>5</voice>
      </note>
      <note>
        <chord/>
        <pitch>
          <step>D</step>
          <alter>1</alter>
          <octave>4</octave>
        </pitch>
        <duration>1152</duration>
        <type>whole</type>
        <dot/>
        <staff>2</staff>
        <voice>5</voice>
      </note>
    </measure>

    <measure number="11">
      <harmony default-y="45">
        <root><root-step>X</root-step></root>
        <kind text="Amaj9(#11)">none</kind>
        <staff>1</staff>
      </harmony>
      <note>
        <pitch>
          <step>C</step>
          <alter>1</alter>
          <octave>5</octave>
        </pitch>
        <duration>128</duration>
        <type>eighth</type>
        <staff>1</staff>
        <voice>1</voice>
        <notations>
          <slur type="start" number="1"/>
        </notations>
      </note>
      <note>
        <pitch>
          <step>E</step>
          <octave>5</octave>
        </pitch>
        <duration>128</duration>
        <type>eighth</type>
        <staff>1</staff>
        <voice>1</voice>
      </note>
      <note>
        <pitch>
          <step>G</step>
          <alter>1</alter>
          <octave>5</octave>
        </pitch>
        <duration>256</duration>
        <type>quarter</type>
        <staff>1</staff>
        <voice>1</voice>
      </note>
      <note>
        <pitch>
          <step>B</step>
          <octave>5</octave>
        </pitch>
        <duration>384</duration>
        <type>quarter</type>
        <dot/>
        <staff>1</staff>
        <voice>1</voice>
      </note>
      <note>
        <pitch>
          <step>A</step>
          <octave>5</octave>
        </pitch>
        <duration>256</duration>
        <type>quarter</type>
        <staff>1</staff>
        <voice>1</voice>
        <notations>
          <slur type="stop" number="1"/>
        </notations>
      </note>
      <backup><duration>1152</duration></backup>
      <note>
        <pitch>
          <step>A</step>
          <octave>1</octave>
        </pitch>
        <duration>1152</duration>
        <type>whole</type>
        <dot/>
        <staff>2</staff>
        <voice>5</voice>
      </note>
      <note>
        <chord/>
        <pitch>
          <step>E</step>
          <octave>3</octave>
        </pitch>
        <duration>1152</duration>
        <type>whole</type>
        <dot/>
        <staff>2</staff>
        <voice>5</voice>
      </note>
      <note>
        <chord/>
        <pitch>
          <step>G</step>
          <alter>1</alter>
          <octave>3</octave>
        </pitch>
        <duration>1152</duration>
        <type>whole</type>
        <dot/>
        <staff>2</staff>
        <voice>5</voice>
      </note>
      <note>
        <chord/>
        <pitch>
          <step>D</step>
          <alter>1</alter>
          <octave>4</octave>
        </pitch>
        <duration>1152</duration>
        <type>whole</type>
        <dot/>
        <staff>2</staff>
        <voice>5</voice>
      </note>
      <note>
        <chord/>
        <pitch>
          <step>B</step>
          <octave>4</octave>
        </pitch>
        <duration>1152</duration>
        <type>whole</type>
        <dot/>
        <staff>2</staff>
        <voice>5</voice>
      </note>
    </measure>

    <measure number="12">
      <direction placement="above">
        <direction-type>
          <words default-y="70" font-size="9" font-style="italic">fragile</words>
        </direction-type>
        <staff>1</staff>
      </direction>
      <direction placement="above">
        <direction-type>
          <dynamics default-y="55"><pp/></dynamics>
        </direction-type>
        <staff>1</staff>
      </direction>
      <harmony default-y="45">
        <root><root-step>X</root-step></root>
        <kind text="Gmaj13(#11)">none</kind>
        <staff>1</staff>
      </harmony>
      <!-- Fragility moment -->
      <note>
        <pitch>
          <step>F</step>
          <alter>1</alter>
          <octave>5</octave>
        </pitch>
        <duration>768</duration>
        <type>half</type>
        <dot/>
        <staff>1</staff>
        <voice>1</voice>
        <notations>
          <slur type="start" number="1"/>
          <articulations><tenuto/></articulations>
        </notations>
      </note>
      <note>
        <pitch>
          <step>E</step>
          <octave>5</octave>
        </pitch>
        <duration>256</duration>
        <type>quarter</type>
        <staff>1</staff>
        <voice>1</voice>
      </note>
      <note>
        <pitch>
          <step>D</step>
          <octave>5</octave>
        </pitch>
        <duration>128</duration>
        <type>eighth</type>
        <staff>1</staff>
        <voice>1</voice>
        <notations>
          <slur type="stop" number="1"/>
        </notations>
      </note>
      <backup><duration>1152</duration></backup>
      <note>
        <pitch>
          <step>G</step>
          <octave>2</octave>
        </pitch>
        <duration>1152</duration>
        <type>whole</type>
        <dot/>
        <staff>2</staff>
        <voice>5</voice>
      </note>
      <note>
        <chord/>
        <pitch>
          <step>D</step>
          <octave>3</octave>
        </pitch>
        <duration>1152</duration>
        <type>whole</type>
        <dot/>
        <staff>2</staff>
        <voice>5</voice>
      </note>
      <note>
        <chord/>
        <pitch>
          <step>B</step>
          <octave>3</octave>
        </pitch>
        <duration>1152</duration>
        <type>whole</type>
        <dot/>
        <staff>2</staff>
        <voice>5</voice>
      </note>
      <note>
        <chord/>
        <pitch>
          <step>E</step>
          <octave>4</octave>
        </pitch>
        <duration>1152</duration>
        <type>whole</type>
        <dot/>
        <staff>2</staff>
        <voice>5</voice>
      </note>
      <note>
        <chord/>
        <pitch>
          <step>C</step>
          <alter>1</alter>
          <octave>5</octave>
        </pitch>
        <duration>1152</duration>
        <type>whole</type>
        <dot/>
        <staff>2</staff>
        <voice>5</voice>
      </note>
    </measure>

    <measure number="13">
      <print new-system="yes"/>
      <harmony default-y="45">
        <root><root-step>X</root-step></root>
        <kind text="Emaj9(#11)">none</kind>
        <staff>1</staff>
      </harmony>
      <note>
        <pitch>
          <step>B</step>
          <octave>5</octave>
        </pitch>
        <duration>384</duration>
        <type>quarter</type>
        <dot/>
        <staff>1</staff>
        <voice>1</voice>
        <notations>
          <slur type="start" number="1"/>
        </notations>
      </note>
      <note>
        <pitch>
          <step>G</step>
          <alter>1</alter>
          <octave>5</octave>
        </pitch>
        <duration>384</duration>
        <type>quarter</type>
        <dot/>
        <staff>1</staff>
        <voice>1</voice>
      </note>
      <note>
        <pitch>
          <step>F</step>
          <alter>1</alter>
          <octave>5</octave>
        </pitch>
        <duration>384</duration>
        <type>quarter</type>
        <dot/>
        <staff>1</staff>
        <voice>1</voice>
        <notations>
          <slur type="stop" number="1"/>
        </notations>
      </note>
      <backup><duration>1152</duration></backup>
      <note>
        <pitch>
          <step>E</step>
          <octave>2</octave>
        </pitch>
        <duration>1152</duration>
        <type>whole</type>
        <dot/>
        <staff>2</staff>
        <voice>5</voice>
      </note>
      <note>
        <chord/>
        <pitch>
          <step>B</step>
          <octave>2</octave>
        </pitch>
        <duration>1152</duration>
        <type>whole</type>
        <dot/>
        <staff>2</staff>
        <voice>5</voice>
      </note>
      <note>
        <chord/>
        <pitch>
          <step>D</step>
          <alter>1</alter>
          <octave>4</octave>
        </pitch>
        <duration>1152</duration>
        <type>whole</type>
        <dot/>
        <staff>2</staff>
        <voice>5</voice>
      </note>
      <note>
        <chord/>
        <pitch>
          <step>A</step>
          <alter>1</alter>
          <octave>4</octave>
        </pitch>
        <duration>1152</duration>
        <type>whole</type>
        <dot/>
        <staff>2</staff>
        <voice>5</voice>
      </note>
    </measure>

    <measure number="14">
      <direction placement="above">
        <direction-type>
          <dynamics default-y="55"><p/></dynamics>
        </direction-type>
        <staff>1</staff>
      </direction>
      <harmony default-y="45">
        <root><root-step>X</root-step></root>
        <kind text="Dbmaj9(#11)">none</kind>
        <staff>1</staff>
      </harmony>
      <!-- Tritone away, distant key -->
      <note>
        <pitch>
          <step>A</step>
          <alter>-1</alter>
          <octave>5</octave>
        </pitch>
        <duration>256</duration>
        <type>quarter</type>
        <staff>1</staff>
        <voice>1</voice>
        <notations>
          <slur type="start" number="1"/>
        </notations>
      </note>
      <note>
        <pitch>
          <step>G</step>
          <octave>5</octave>
        </pitch>
        <duration>128</duration>
        <type>eighth</type>
        <staff>1</staff>
        <voice>1</voice>
      </note>
      <note>
        <pitch>
          <step>F</step>
          <octave>5</octave>
        </pitch>
        <duration>256</duration>
        <type>quarter</type>
        <staff>1</staff>
        <voice>1</voice>
      </note>
      <note>
        <pitch>
          <step>E</step>
          <alter>-1</alter>
          <octave>5</octave>
        </pitch>
        <duration>128</duration>
        <type>eighth</type>
        <staff>1</staff>
        <voice>1</voice>
      </note>
      <note>
        <pitch>
          <step>C</step>
          <octave>5</octave>
        </pitch>
        <duration>384</duration>
        <type>quarter</type>
        <dot/>
        <staff>1</staff>
        <voice>1</voice>
        <notations>
          <slur type="stop" number="1"/>
        </notations>
      </note>
      <backup><duration>1152</duration></backup>
      <note>
        <pitch>
          <step>D</step>
          <alter>-1</alter>
          <octave>2</octave>
        </pitch>
        <duration>1152</duration>
        <type>whole</type>
        <dot/>
        <staff>2</staff>
        <voice>5</voice>
      </note>
      <note>
        <chord/>
        <pitch>
          <step>A</step>
          <alter>-1</alter>
          <octave>2</octave>
        </pitch>
        <duration>1152</duration>
        <type>whole</type>
        <dot/>
        <staff>2</staff>
        <voice>5</voice>
      </note>
      <note>
        <chord/>
        <pitch>
          <step>C</step>
          <octave>4</octave>
        </pitch>
        <duration>1152</duration>
        <type>whole</type>
        <dot/>
        <staff>2</staff>
        <voice>5</voice>
      </note>
      <note>
        <chord/>
        <pitch>
          <step>G</step>
          <octave>4</octave>
        </pitch>
        <duration>1152</duration>
        <type>whole</type>
        <dot/>
        <staff>2</staff>
        <voice>5</voice>
      </note>
    </measure>

    <measure number="15">
      <direction placement="above">
        <direction-type>
          <words default-y="70" font-size="9" font-style="italic">growing, emerging</words>
        </direction-type>
        <staff>1</staff>
      </direction>
      <harmony default-y="45">
        <root><root-step>X</root-step></root>
        <kind text="Bbmaj13(#11)">none</kind>
        <staff>1</staff>
      </harmony>
      <note>
        <pitch>
          <step>D</step>
          <octave>5</octave>
        </pitch>
        <duration>128</duration>
        <type>eighth</type>
        <staff>1</staff>
        <voice>1</voice>
        <notations>
          <slur type="start" number="1"/>
        </notations>
      </note>
      <note>
        <pitch>
          <step>F</step>
          <octave>5</octave>
        </pitch>
        <duration>256</duration>
        <type>quarter</type>
        <staff>1</staff>
        <voice>1</voice>
      </note>
      <note>
        <pitch>
          <step>G</step>
          <octave>5</octave>
        </pitch>
        <duration>384</duration>
        <type>quarter</type>
        <dot/>
        <staff>1</staff>
        <voice>1</voice>
      </note>
      <note>
        <pitch>
          <step>A</step>
          <octave>5</octave>
        </pitch>
        <duration>256</duration>
        <type>quarter</type>
        <staff>1</staff>
        <voice>1</voice>
      </note>
      <note>
        <pitch>
          <step>B</step>
          <alter>-1</alter>
          <octave>5</octave>
        </pitch>
        <duration>128</duration>
        <type>eighth</type>
        <staff>1</staff>
        <voice>1</voice>
        <notations>
          <slur type="stop" number="1"/>
        </notations>
      </note>
      <backup><duration>1152</duration></backup>
      <note>
        <pitch>
          <step>B</step>
          <alter>-1</alter>
          <octave>1</octave>
        </pitch>
        <duration>1152</duration>
        <type>whole</type>
        <dot/>
        <staff>2</staff>
        <voice>5</voice>
      </note>
      <note>
        <chord/>
        <pitch>
          <step>F</step>
          <octave>3</octave>
        </pitch>
        <duration>1152</duration>
        <type>whole</type>
        <dot/>
        <staff>2</staff>
        <voice>5</voice>
      </note>
      <note>
        <chord/>
        <pitch>
          <step>A</step>
          <octave>3</octave>
        </pitch>
        <duration>1152</duration>
        <type>whole</type>
        <dot/>
        <staff>2</staff>
        <voice>5</voice>
      </note>
      <note>
        <chord/>
        <pitch>
          <step>E</step>
          <octave>4</octave>
        </pitch>
        <duration>1152</duration>
        <type>whole</type>
        <dot/>
        <staff>2</staff>
        <voice>5</voice>
      </note>
      <note>
        <chord/>
        <pitch>
          <step>G</step>
          <octave>4</octave>
        </pitch>
        <duration>1152</duration>
        <type>whole</type>
        <dot/>
        <staff>2</staff>
        <voice>5</voice>
      </note>
    </measure>

    <measure number="16">
      <direction placement="above">
        <direction-type>
          <dynamics default-y="55"><mp/></dynamics>
        </direction-type>
        <staff>1</staff>
      </direction>
      <harmony default-y="45">
        <root><root-step>X</root-step></root>
        <kind text="Fmaj9(#11)">none</kind>
        <staff>1</staff>
      </harmony>
      <!-- Return to F, transition back to 4/4 -->
      <note>
        <pitch>
          <step>C</step>
          <octave>6</octave>
        </pitch>
        <duration>384</duration>
        <type>quarter</type>
        <dot/>
        <staff>1</staff>
        <voice>1</voice>
        <notations>
          <slur type="start" number="1"/>
          <articulations><tenuto/></articulations>
        </notations>
      </note>
      <note>
        <pitch>
          <step>B</step>
          <octave>5</octave>
        </pitch>
        <duration>256</duration>
        <type>quarter</type>
        <staff>1</staff>
        <voice>1</voice>
      </note>
      <note>
        <pitch>
          <step>A</step>
          <octave>5</octave>
        </pitch>
        <duration>256</duration>
        <type>quarter</type>
        <staff>1</staff>
        <voice>1</voice>
      </note>
      <note>
        <pitch>
          <step>G</step>
          <octave>5</octave>
        </pitch>
        <duration>256</duration>
        <type>quarter</type>
        <staff>1</staff>
        <voice>1</voice>
        <notations>
          <slur type="stop" number="1"/>
        </notations>
      </note>
      <backup><duration>1152</duration></backup>
      <note>
        <pitch>
          <step>F</step>
          <octave>2</octave>
        </pitch>
        <duration>1152</duration>
        <type>whole</type>
        <dot/>
        <staff>2</staff>
        <voice>5</voice>
      </note>
      <note>
        <chord/>
        <pitch>
          <step>C</step>
          <octave>3</octave>
        </pitch>
        <duration>1152</duration>
        <type>whole</type>
        <dot/>
        <staff>2</staff>
        <voice>5</voice>
      </note>
      <note>
        <chord/>
        <pitch>
          <step>E</step>
          <octave>4</octave>
        </pitch>
        <duration>1152</duration>
        <type>whole</type>
        <dot/>
        <staff>2</staff>
        <voice>5</voice>
      </note>
      <note>
        <chord/>
        <pitch>
          <step>B</step>
          <octave>4</octave>
        </pitch>
        <duration>1152</duration>
        <type>whole</type>
        <dot/>
        <staff>2</staff>
        <voice>5</voice>
      </note>
    </measure>

    <!-- ===== SECTION A': RETURN / CODA — mm. 17-24 ===== -->
    <measure number="17">
      <print new-system="yes"/>
      <attributes>
        <time><beats>4</beats><beat-type>4</beat-type></time>
      </attributes>
      <direction placement="above">
        <direction-type>
          <rehearsal default-y="95" font-size="14" font-weight="bold" enclosure="rectangle">A'</rehearsal>
        </direction-type>
        <staff>1</staff>
      </direction>
      <direction placement="above">
        <direction-type>
          <metronome default-y="85">
            <beat-unit>quarter</beat-unit>
            <per-minute>56</per-minute>
          </metronome>
        </direction-type>
        <sound tempo="56"/>
        <staff>1</staff>
      </direction>
      <direction placement="above">
        <direction-type>
          <words default-y="70" font-size="10" font-style="italic">A tempo, receding into distance</words>
        </direction-type>
        <staff>1</staff>
      </direction>
      <direction placement="above">
        <direction-type>
          <dynamics default-y="55"><p/></dynamics>
        </direction-type>
        <staff>1</staff>
      </direction>
      <harmony default-y="45">
        <root><root-step>X</root-step></root>
        <kind text="Ebmaj9(#11)">none</kind>
        <staff>1</staff>
      </harmony>
      <!-- Return of opening material, transformed -->
      <note>
        <rest/>
        <duration>256</duration>
        <type>quarter</type>
        <staff>1</staff>
        <voice>1</voice>
      </note>
      <note>
        <pitch>
          <step>G</step>
          <octave>5</octave>
        </pitch>
        <duration>384</duration>
        <type>quarter</type>
        <dot/>
        <staff>1</staff>
        <voice>1</voice>
        <notations>
          <slur type="start" number="1"/>
        </notations>
      </note>
      <note>
        <pitch>
          <step>A</step>
          <alter>-1</alter>
          <octave>5</octave>
        </pitch>
        <duration>128</duration>
        <type>eighth</type>
        <staff>1</staff>
        <voice>1</voice>
      </note>
      <note>
        <pitch>
          <step>B</step>
          <alter>-1</alter>
          <octave>5</octave>
        </pitch>
        <duration>256</duration>
        <type>quarter</type>
        <staff>1</staff>
        <voice>1</voice>
        <notations>
          <slur type="stop" number="1"/>
        </notations>
      </note>
      <backup><duration>1024</duration></backup>
      <note>
        <pitch>
          <step>E</step>
          <alter>-1</alter>
          <octave>2</octave>
        </pitch>
        <duration>1024</duration>
        <type>whole</type>
        <staff>2</staff>
        <voice>5</voice>
      </note>
      <note>
        <chord/>
        <pitch>
          <step>B</step>
          <alter>-1</alter>
          <octave>2</octave>
        </pitch>
        <duration>1024</duration>
        <type>whole</type>
        <staff>2</staff>
        <voice>5</voice>
      </note>
      <note>
        <chord/>
        <pitch>
          <step>D</step>
          <octave>4</octave>
        </pitch>
        <duration>1024</duration>
        <type>whole</type>
        <staff>2</staff>
        <voice>5</voice>
      </note>
      <note>
        <chord/>
        <pitch>
          <step>A</step>
          <octave>4</octave>
        </pitch>
        <duration>1024</duration>
        <type>whole</type>
        <staff>2</staff>
        <voice>5</voice>
      </note>
    </measure>

    <measure number="18">
      <harmony default-y="45">
        <root><root-step>X</root-step></root>
        <kind text="Cmaj13(#11)">none</kind>
        <staff>1</staff>
      </harmony>
      <note>
        <pitch>
          <step>A</step>
          <octave>5</octave>
        </pitch>
        <duration>512</duration>
        <type>half</type>
        <staff>1</staff>
        <voice>1</voice>
        <notations>
          <slur type="start" number="1"/>
          <articulations><tenuto/></articulations>
        </notations>
      </note>
      <note>
        <pitch>
          <step>G</step>
          <octave>5</octave>
        </pitch>
        <duration>256</duration>
        <type>quarter</type>
        <staff>1</staff>
        <voice>1</voice>
      </note>
      <note>
        <pitch>
          <step>F</step>
          <alter>1</alter>
          <octave>5</octave>
        </pitch>
        <duration>256</duration>
        <type>quarter</type>
        <staff>1</staff>
        <voice>1</voice>
        <notations>
          <slur type="stop" number="1"/>
        </notations>
      </note>
      <backup><duration>1024</duration></backup>
      <note>
        <pitch>
          <step>C</step>
          <octave>2</octave>
        </pitch>
        <duration>1024</duration>
        <type>whole</type>
        <staff>2</staff>
        <voice>5</voice>
      </note>
      <note>
        <chord/>
        <pitch>
          <step>G</step>
          <octave>2</octave>
        </pitch>
        <duration>1024</duration>
        <type>whole</type>
        <staff>2</staff>
        <voice>5</voice>
      </note>
      <note>
        <chord/>
        <pitch>
          <step>E</step>
          <octave>3</octave>
        </pitch>
        <duration>1024</duration>
        <type>whole</type>
        <staff>2</staff>
        <voice>5</voice>
      </note>
      <note>
        <chord/>
        <pitch>
          <step>B</step>
          <octave>3</octave>
        </pitch>
        <duration>1024</duration>
        <type>whole</type>
        <staff>2</staff>
        <voice>5</voice>
      </note>
      <note>
        <chord/>
        <pitch>
          <step>F</step>
          <alter>1</alter>
          <octave>4</octave>
        </pitch>
        <duration>1024</duration>
        <type>whole</type>
        <staff>2</staff>
        <voice>5</voice>
      </note>
    </measure>

    <measure number="19">
      <direction placement="above">
        <direction-type>
          <dynamics default-y="55"><pp/></dynamics>
        </direction-type>
        <staff>1</staff>
      </direction>
      <harmony default-y="45">
        <root><root-step>X</root-step></root>
        <kind text="Abmaj9(#11)">none</kind>
        <staff>1</staff>
      </harmony>
      <note>
        <pitch>
          <step>E</step>
          <alter>-1</alter>
          <octave>5</octave>
        </pitch>
        <duration>256</duration>
        <type>quarter</type>
        <staff>1</staff>
        <voice>1</voice>
        <notations>
          <slur type="start" number="1"/>
        </notations>
      </note>
      <note>
        <pitch>
          <step>G</step>
          <octave>5</octave>
        </pitch>
        <duration>256</duration>
        <type>quarter</type>
        <staff>1</staff>
        <voice>1</voice>
      </note>
      <note>
        <pitch>
          <step>B</step>
          <alter>-1</alter>
          <octave>5</octave>
        </pitch>
        <duration>512</duration>
        <type>half</type>
        <staff>1</staff>
        <voice>1</voice>
        <notations>
          <slur type="stop" number="1"/>
          <articulations><tenuto/></articulations>
        </notations>
      </note>
      <backup><duration>1024</duration></backup>
      <note>
        <pitch>
          <step>A</step>
          <alter>-1</alter>
          <octave>2</octave>
        </pitch>
        <duration>1024</duration>
        <type>whole</type>
        <staff>2</staff>
        <voice>5</voice>
      </note>
      <note>
        <chord/>
        <pitch>
          <step>E</step>
          <alter>-1</alter>
          <octave>3</octave>
        </pitch>
        <duration>1024</duration>
        <type>whole</type>
        <staff>2</staff>
        <voice>5</voice>
      </note>
      <note>
        <chord/>
        <pitch>
          <step>G</step>
          <octave>3</octave>
        </pitch>
        <duration>1024</duration>
        <type>whole</type>
        <staff>2</staff>
        <voice>5</voice>
      </note>
      <note>
        <chord/>
        <pitch>
          <step>D</step>
          <octave>4</octave>
        </pitch>
        <duration>1024</duration>
        <type>whole</type>
        <staff>2</staff>
        <voice>5</voice>
      </note>
    </measure>

    <measure number="20">
      <harmony default-y="45">
        <root><root-step>X</root-step></root>
        <kind text="Fmaj13(#11)">none</kind>
        <staff>1</staff>
      </harmony>
      <note>
        <pitch>
          <step>A</step>
          <octave>5</octave>
        </pitch>
        <duration>384</duration>
        <type>quarter</type>
        <dot/>
        <staff>1</staff>
        <voice>1</voice>
        <notations>
          <slur type="start" number="1"/>
        </notations>
      </note>
      <note>
        <pitch>
          <step>G</step>
          <octave>5</octave>
        </pitch>
        <duration>128</duration>
        <type>eighth</type>
        <staff>1</staff>
        <voice>1</voice>
      </note>
      <note>
        <pitch>
          <step>F</step>
          <octave>5</octave>
        </pitch>
        <duration>256</duration>
        <type>quarter</type>
        <staff>1</staff>
        <voice>1</voice>
      </note>
      <note>
        <pitch>
          <step>E</step>
          <octave>5</octave>
        </pitch>
        <duration>256</duration>
        <type>quarter</type>
        <staff>1</staff>
        <voice>1</voice>
        <notations>
          <slur type="stop" number="1"/>
        </notations>
      </note>
      <backup><duration>1024</duration></backup>
      <note>
        <pitch>
          <step>F</step>
          <octave>2</octave>
        </pitch>
        <duration>1024</duration>
        <type>whole</type>
        <staff>2</staff>
        <voice>5</voice>
      </note>
      <note>
        <chord/>
        <pitch>
          <step>C</step>
          <octave>3</octave>
        </pitch>
        <duration>1024</duration>
        <type>whole</type>
        <staff>2</staff>
        <voice>5</voice>
      </note>
      <note>
        <chord/>
        <pitch>
          <step>E</step>
          <octave>4</octave>
        </pitch>
        <duration>1024</duration>
        <type>whole</type>
        <staff>2</staff>
        <voice>5</voice>
      </note>
      <note>
        <chord/>
        <pitch>
          <step>A</step>
          <octave>4</octave>
        </pitch>
        <duration>1024</duration>
        <type>whole</type>
        <staff>2</staff>
        <voice>5</voice>
      </note>
      <note>
        <chord/>
        <pitch>
          <step>D</step>
          <octave>5</octave>
        </pitch>
        <duration>1024</duration>
        <type>whole</type>
        <staff>2</staff>
        <voice>5</voice>
      </note>
    </measure>

    <measure number="21">
      <print new-system="yes"/>
      <direction placement="above">
        <direction-type>
          <rehearsal default-y="95" font-size="14" font-weight="bold" enclosure="rectangle">CODA</rehearsal>
        </direction-type>
        <staff>1</staff>
      </direction>
      <direction placement="above">
        <direction-type>
          <words default-y="70" font-size="10" font-style="italic">The Evans Cloud — dissolving, no resolution</words>
        </direction-type>
        <staff>1</staff>
      </direction>
      <direction placement="above">
        <direction-type>
          <dynamics default-y="55"><ppp/></dynamics>
        </direction-type>
        <staff>1</staff>
      </direction>
      <harmony default-y="45">
        <root><root-step>X</root-step></root>
        <kind text="Dbmaj9(#11)/C">none</kind>
        <staff>1</staff>
      </harmony>
      <!-- Tritone polychord over C pedal -->
      <note>
        <pitch>
          <step>F</step>
          <octave>5</octave>
        </pitch>
        <duration>768</duration>
        <type>half</type>
        <dot/>
        <staff>1</staff>
        <voice>1</voice>
        <notations>
          <slur type="start" number="1"/>
          <articulations><tenuto/></articulations>
        </notations>
      </note>
      <note>
        <pitch>
          <step>E</step>
          <alter>-1</alter>
          <octave>5</octave>
        </pitch>
        <duration>256</duration>
        <type>quarter</type>
        <staff>1</staff>
        <voice>1</voice>
        <notations>
          <slur type="stop" number="1"/>
        </notations>
      </note>
      <backup><duration>1024</duration></backup>
      <note>
        <pitch>
          <step>C</step>
          <octave>2</octave>
        </pitch>
        <duration>1024</duration>
        <type>whole</type>
        <staff>2</staff>
        <voice>5</voice>
      </note>
      <note>
        <chord/>
        <pitch>
          <step>A</step>
          <alter>-1</alter>
          <octave>3</octave>
        </pitch>
        <duration>1024</duration>
        <type>whole</type>
        <staff>2</staff>
        <voice>5</voice>
      </note>
      <note>
        <chord/>
        <pitch>
          <step>C</step>
          <octave>4</octave>
        </pitch>
        <duration>1024</duration>
        <type>whole</type>
        <staff>2</staff>
        <voice>5</voice>
      </note>
      <note>
        <chord/>
        <pitch>
          <step>G</step>
          <octave>4</octave>
        </pitch>
        <duration>1024</duration>
        <type>whole</type>
        <staff>2</staff>
        <voice>5</voice>
      </note>
    </measure>

    <measure number="22">
      <harmony default-y="45">
        <root><root-step>X</root-step></root>
        <kind text="Bbmaj9(#11)/C">none</kind>
        <staff>1</staff>
      </harmony>
      <note>
        <pitch>
          <step>D</step>
          <octave>5</octave>
        </pitch>
        <duration>512</duration>
        <type>half</type>
        <staff>1</staff>
        <voice>1</voice>
        <notations>
          <slur type="start" number="1"/>
        </notations>
      </note>
      <note>
        <pitch>
          <step>C</step>
          <octave>5</octave>
        </pitch>
        <duration>256</duration>
        <type>quarter</type>
        <staff>1</staff>
        <voice>1</voice>
      </note>
      <note>
        <pitch>
          <step>A</step>
          <octave>4</octave>
        </pitch>
        <duration>256</duration>
        <type>quarter</type>
        <staff>1</staff>
        <voice>1</voice>
        <notations>
          <slur type="stop" number="1"/>
        </notations>
      </note>
      <backup><duration>1024</duration></backup>
      <note>
        <pitch>
          <step>C</step>
          <octave>2</octave>
        </pitch>
        <duration>1024</duration>
        <type>whole</type>
        <staff>2</staff>
        <voice>5</voice>
      </note>
      <note>
        <chord/>
        <pitch>
          <step>F</step>
          <octave>3</octave>
        </pitch>
        <duration>1024</duration>
        <type>whole</type>
        <staff>2</staff>
        <voice>5</voice>
      </note>
      <note>
        <chord/>
        <pitch>
          <step>A</step>
          <octave>3</octave>
        </pitch>
        <duration>1024</duration>
        <type>whole</type>
        <staff>2</staff>
        <voice>5</voice>
      </note>
      <note>
        <chord/>
        <pitch>
          <step>E</step>
          <octave>4</octave>
        </pitch>
        <duration>1024</duration>
        <type>whole</type>
        <staff>2</staff>
        <voice>5</voice>
      </note>
    </measure>

    <measure number="23">
      <direction placement="above">
        <direction-type>
          <words default-y="70" font-size="9" font-style="italic">senza vibrato, morendo</words>
        </direction-type>
        <staff>1</staff>
      </direction>
      <direction placement="above">
        <direction-type>
          <dynamics default-y="55"><pppp/></dynamics>
        </direction-type>
        <staff>1</staff>
      </direction>
      <harmony default-y="45">
        <root><root-step>X</root-step></root>
        <kind text="Abmaj7(#11)/C">none</kind>
        <staff>1</staff>
      </harmony>
      <note>
        <pitch>
          <step>G</step>
          <octave>5</octave>
        </pitch>
        <duration>768</duration>
        <type>half</type>
        <dot/>
        <staff>1</staff>
        <voice>1</voice>
        <notations>
          <slur type="start" number="1"/>
          <articulations><tenuto/></articulations>
        </notations>
      </note>
      <note>
        <pitch>
          <step>E</step>
          <alter>-1</alter>
          <octave>5</octave>
        </pitch>
        <duration>256</duration>
        <type>quarter</type>
        <staff>1</staff>
        <voice>1</voice>
        <notations>
          <slur type="stop" number="1"/>
        </notations>
      </note>
      <backup><duration>1024</duration></backup>
      <note>
        <pitch>
          <step>C</step>
          <octave>2</octave>
        </pitch>
        <duration>1024</duration>
        <type>whole</type>
        <staff>2</staff>
        <voice>5</voice>
      </note>
      <note>
        <chord/>
        <pitch>
          <step>E</step>
          <alter>-1</alter>
          <octave>3</octave>
        </pitch>
        <duration>1024</duration>
        <type>whole</type>
        <staff>2</staff>
        <voice>5</voice>
      </note>
      <note>
        <chord/>
        <pitch>
          <step>G</step>
          <octave>3</octave>
        </pitch>
        <duration>1024</duration>
        <type>whole</type>
        <staff>2</staff>
        <voice>5</voice>
      </note>
      <note>
        <chord/>
        <pitch>
          <step>D</step>
          <octave>4</octave>
        </pitch>
        <duration>1024</duration>
        <type>whole</type>
        <staff>2</staff>
        <voice>5</voice>
      </note>
    </measure>

    <measure number="24">
      <direction placement="above">
        <direction-type>
          <words default-y="70" font-size="10" font-style="italic">niente — let sound evaporate</words>
        </direction-type>
        <staff>1</staff>
      </direction>
      <harmony default-y="45">
        <root><root-step>X</root-step></root>
        <kind text="Cmaj9(#11)">none</kind>
        <staff>1</staff>
      </harmony>
      <note>
        <pitch>
          <step>D</step>
          <octave>5</octave>
        </pitch>
        <duration>1024</duration>
        <type>whole</type>
        <staff>1</staff>
        <voice>1</voice>
        <notations>
          <fermata type="upright"/>
          <articulations><tenuto/></articulations>
        </notations>
      </note>
      <backup><duration>1024</duration></backup>
      <note>
        <pitch>
          <step>C</step>
          <octave>2</octave>
        </pitch>
        <duration>1024</duration>
        <type>whole</type>
        <staff>2</staff>
        <voice>5</voice>
      </note>
      <note>
        <chord/>
        <pitch>
          <step>G</step>
          <octave>2</octave>
        </pitch>
        <duration>1024</duration>
        <type>whole</type>
        <staff>2</staff>
        <voice>5</voice>
      </note>
      <note>
        <chord/>
        <pitch>
          <step>E</step>
          <octave>3</octave>
        </pitch>
        <duration>1024</duration>
        <type>whole</type>
        <staff>2</staff>
        <voice>5</voice>
      </note>
      <note>
        <chord/>
        <pitch>
          <step>B</step>
          <octave>3</octave>
        </pitch>
        <duration>1024</duration>
        <type>whole</type>
        <staff>2</staff>
        <voice>5</voice>
      </note>
      <note>
        <chord/>
        <pitch>
          <step>F</step>
          <alter>1</alter>
          <octave>4</octave>
        </pitch>
        <duration>1024</duration>
        <type>whole</type>
        <staff>2</staff>
        <voice>5</voice>
      </note>
      <barline location="right">
        <bar-style>light-heavy</bar-style>
      </barline>
    </measure>
  </part>
</score-partwise>


